<svg xmlns="http://www.w3.org/2000/svg" xmlns:xlink="http://www.w3.org/1999/xlink" width="500" zoomAndPan="magnify" viewBox="0 0 375 374.999991" height="500" preserveAspectRatio="xMidYMid meet" version="1.0"><defs><clipPath id="7699f4f483"><path d="M 216 3.179688 L 246 3.179688 L 246 30 L 216 30 Z M 216 3.179688 " clip-rule="nonzero"/></clipPath></defs><g clip-path="url(#7699f4f483)"><path fill="#f6a45f" d="M 233.699219 19.820312 C 234.15625 19.632812 234.625 19.46875 235.109375 19.328125 C 237.183594 18.734375 240.425781 18.5625 242.679688 19.273438 C 244.050781 19.703125 245.074219 20.472656 245.515625 21.527344 C 245.945312 22.554688 245.882812 23.945312 244.761719 25.726562 C 243.066406 28.425781 240.398438 29.257812 237.511719 29.21875 C 235.167969 29.1875 232.683594 28.570312 230.589844 28.074219 C 229.335938 27.78125 228.238281 27.527344 227.433594 27.53125 C 226.851562 27.535156 226.378906 27.066406 226.375 26.484375 C 226.371094 25.902344 226.839844 25.425781 227.421875 25.421875 C 229.257812 25.410156 232.5 26.554688 235.75 26.972656 C 238.535156 27.332031 241.367188 27.167969 242.976562 24.605469 C 243.589844 23.628906 243.808594 22.90625 243.570312 22.339844 C 243.34375 21.800781 242.75 21.503906 242.046875 21.28125 C 240.152344 20.6875 237.433594 20.855469 235.691406 21.355469 C 234.175781 21.789062 232.824219 22.535156 231.40625 23.191406 L 231.402344 23.195312 C 231.019531 23.4375 229.484375 24.46875 229.140625 24.621094 C 228.675781 24.828125 228.335938 24.6875 228.21875 24.636719 C 227.871094 24.480469 227.671875 24.214844 227.609375 23.84375 C 227.558594 23.546875 227.667969 22.980469 228.148438 22.367188 C 229.050781 21.210938 231.484375 19.179688 231.820312 18.777344 C 234.582031 15.476562 235.960938 14.605469 237.675781 10.792969 C 238 10.078125 238.277344 9 238.238281 8.003906 C 238.21875 7.472656 238.117188 6.964844 237.808594 6.597656 C 237.425781 6.144531 236.828125 6.070312 236.246094 6.117188 C 235.515625 6.179688 234.785156 6.460938 234.300781 6.785156 C 231.238281 8.867188 230.578125 10.683594 229.660156 13.929688 C 229.246094 15.398438 228.84375 16.863281 228.445312 18.335938 C 228.28125 18.925781 228.097656 19.511719 227.90625 20.09375 C 227.851562 20.265625 227.4375 21.640625 227.171875 22.308594 C 227.050781 22.609375 226.929688 22.820312 226.855469 22.910156 C 226.519531 23.332031 226.117188 23.347656 225.882812 23.320312 C 225.574219 23.285156 225.222656 23.148438 225.019531 22.675781 C 224.867188 22.316406 224.777344 21.65625 224.78125 20.863281 C 224.785156 19.488281 225.011719 17.601562 224.9375 16.921875 C 224.738281 15.042969 224.710938 12.511719 224.140625 10.359375 C 223.816406 9.136719 223.328125 8.039062 222.421875 7.367188 C 221.667969 6.8125 221.054688 6.589844 220.53125 6.726562 C 220.082031 6.839844 219.746094 7.210938 219.480469 7.660156 C 218.9375 8.574219 218.691406 9.835938 218.710938 10.964844 C 218.816406 16.96875 221.292969 20.035156 224.089844 23.394531 C 224.460938 23.839844 224.402344 24.507812 223.953125 24.878906 C 223.507812 25.25 222.84375 25.191406 222.472656 24.746094 C 219.382812 21.039062 216.71875 17.628906 216.605469 11 C 216.578125 9.488281 216.945312 7.804688 217.667969 6.585938 C 218.242188 5.617188 219.042969 4.929688 220.011719 4.683594 C 221.007812 4.429688 222.246094 4.617188 223.675781 5.671875 C 224.945312 6.613281 225.722656 8.105469 226.175781 9.816406 C 226.6875 11.746094 226.796875 13.96875 226.949219 15.804688 C 227.175781 14.988281 227.402344 14.171875 227.632812 13.355469 C 228.707031 9.558594 229.535156 7.476562 233.117188 5.042969 C 234.003906 4.441406 235.4375 3.9375 236.761719 4.003906 C 237.78125 4.054688 238.730469 4.429688 239.414062 5.234375 C 240.015625 5.9375 240.304688 6.894531 240.34375 7.917969 C 240.398438 9.253906 240.027344 10.699219 239.597656 11.660156 C 237.835938 15.570312 236.445312 16.574219 233.699219 19.820312 Z M 233.699219 19.820312 " fill-opacity="1" fill-rule="evenodd"/></g><path fill="#ea7992" d="M 229.25 112.257812 C 229.25 112.257812 232.398438 24.269531 228.871094 21.289062 C 225.132812 18.128906 158.519531 68.808594 158.519531 68.808594 C 158.519531 68.808594 170.226562 114.6875 229.25 112.257812 Z M 229.25 112.257812 " fill-opacity="1" fill-rule="evenodd"/><path fill="#886bcb" d="M 171.769531 58.867188 C 171.183594 59.300781 170.609375 59.726562 170.054688 60.144531 C 174.898438 70.089844 185.632812 88.796875 202.480469 100.695312 C 202.957031 101.03125 203.613281 100.917969 203.949219 100.441406 C 204.285156 99.964844 204.171875 99.308594 203.695312 98.972656 C 186.976562 87.167969 176.417969 68.507812 171.769531 58.867188 Z M 184.363281 49.597656 L 185.835938 48.527344 C 197.625 70.359375 218.515625 84.261719 229.902344 90.601562 L 229.875 91.757812 L 229.839844 92.964844 C 218.515625 86.769531 196.503906 72.5 184.117188 49.777344 Z M 198.703125 39.304688 C 198.4375 39.492188 198.171875 39.679688 197.90625 39.867188 L 197.742188 39.980469 C 202.828125 48.375 213.519531 63.105469 230.304688 72.445312 L 230.3125 72.078125 L 230.347656 70.046875 C 214.425781 60.859375 204.285156 46.761719 199.464844 38.769531 Z M 212.304688 29.972656 C 212.070312 30.128906 211.839844 30.285156 211.605469 30.4375 L 210.980469 30.855469 C 216.683594 40.46875 225.222656 47.3125 230.542969 50.945312 C 230.542969 50.085938 230.542969 49.234375 230.542969 48.390625 C 225.363281 44.714844 217.84375 38.367188 212.738281 29.691406 Z M 212.304688 29.972656 " fill-opacity="1" fill-rule="evenodd"/><path fill="#4c9d94" d="M 319.410156 292.546875 C 319.410156 292.546875 307.4375 280.777344 305.417969 281.769531 C 303.402344 282.757812 296.25 298.300781 296.25 298.300781 C 296.25 298.300781 285.488281 283.363281 282.921875 283.46875 C 280.359375 283.574219 268.328125 300.570312 268.328125 300.570312 C 268.328125 300.570312 264.757812 282.921875 262.617188 281.769531 C 260.476562 280.617188 241.539062 292.546875 241.539062 292.546875 C 241.539062 292.546875 246.082031 275.375 243.847656 272.230469 C 241.617188 269.089844 222.675781 270.4375 222.675781 270.4375 C 222.675781 270.4375 242.582031 257.878906 241.539062 255.988281 C 240.496094 254.09375 222.675781 239.605469 222.675781 239.605469 C 222.675781 239.605469 245.964844 231.546875 246.238281 228.285156 C 246.511719 225.023438 229.441406 207.972656 229.441406 207.972656 C 229.441406 207.972656 252.148438 195.257812 252.257812 192.0625 C 252.367188 188.871094 232.648438 173.464844 232.648438 173.464844 C 232.648438 173.464844 252.863281 161.386719 252.257812 156.917969 C 251.652344 152.453125 232.648438 140.925781 232.648438 140.925781 C 232.648438 140.925781 249.515625 120.328125 248.210938 117.957031 C 246.902344 115.582031 216.644531 105.382812 216.644531 105.382812 L 207.386719 306.347656 L 282.921875 321.894531 Z M 319.410156 292.546875 " fill-opacity="1" fill-rule="evenodd"/><path fill="#f6dbc9" d="M 140.328125 151.746094 C 140.328125 151.746094 135.027344 159.691406 132.519531 159.53125 C 130.011719 159.375 125.253906 147.34375 125.253906 147.34375 C 125.253906 147.34375 115.894531 156.988281 113.597656 156.730469 C 111.300781 156.46875 106.082031 145.300781 106.082031 145.300781 C 106.082031 145.300781 97.792969 154.925781 95.492188 154.8125 C 93.191406 154.703125 88.289062 142.960938 88.289062 142.960938 C 88.289062 142.960938 79.765625 151.933594 76.988281 151.746094 C 74.214844 151.558594 69.488281 138.511719 69.488281 138.511719 L 107.898438 134.867188 Z M 140.328125 151.746094 " fill-opacity="1" fill-rule="evenodd"/><path fill="#79c4b3" d="M 230.792969 212.378906 C 241.195312 162.253906 235.71875 114.207031 215.863281 102.125 C 215.863281 102.125 219.605469 83.363281 208.347656 77.285156 C 197.09375 71.210938 184.730469 77.484375 182.839844 87.917969 C 182.839844 87.917969 176.539062 85.511719 173.398438 84.902344 C 173.398438 84.902344 172.972656 66.789062 159.394531 65.457031 C 145.8125 64.125 139.476562 75.816406 140.328125 83.914062 C 140.328125 83.914062 93.542969 89.3125 82.566406 90.480469 C 71.585938 91.648438 65.832031 90.417969 62.476562 87.917969 C 59.121094 85.417969 53.660156 82.164062 48.496094 84.902344 C 43.328125 87.640625 42.601562 95.789062 44.417969 106.355469 C 46.234375 116.917969 52.519531 133.722656 64.453125 139.019531 C 76.382812 144.3125 140.328125 151.746094 140.328125 151.746094 C 140.328125 151.746094 132.667969 174.355469 129.371094 184.582031 L 140.328125 323.363281 C 140.328125 323.363281 141.125 344.460938 140.328125 344.707031 C 139.527344 344.953125 127.636719 346.800781 127.351562 349.546875 C 127.066406 352.292969 132.519531 353.335938 132.519531 353.335938 C 132.519531 353.335938 128.796875 355.632812 129.371094 357.957031 C 129.949219 360.28125 140.261719 361.878906 149.949219 361.964844 C 159.636719 362.050781 163.980469 363.101562 165.601562 353.335938 C 167.214844 343.570312 169.605469 335.234375 169.605469 335.234375 L 182.839844 340.828125 C 182.839844 340.828125 189.714844 341.402344 191.5625 341.660156 C 191.5625 341.660156 193.039062 353.953125 191.5625 354.730469 C 190.085938 355.511719 180.933594 357.371094 180.601562 359.234375 C 179.984375 362.699219 186.5 363.261719 186.5 363.261719 C 186.5 363.261719 181.152344 366.109375 182.839844 368.921875 C 183.78125 370.5 203.738281 371.320312 210.648438 370.265625 C 217.167969 369.273438 222.851562 367.851562 223.585938 359.234375 C 224.320312 350.621094 225 341.660156 225 341.660156 C 225 341.660156 250.1875 340.035156 269.945312 334.414062 C 292.269531 328.0625 311.339844 313.316406 321.75 299.109375 C 332.160156 284.902344 315.796875 293.382812 298.027344 296.273438 C 280.257812 299.15625 254.816406 301.808594 235.496094 285.082031 C 216.175781 268.359375 225.296875 238.871094 230.792969 212.378906 Z M 230.792969 212.378906 " fill-opacity="1" fill-rule="evenodd"/><path fill="#afdbbb" d="M 133.375 172.429688 C 133.375 172.429688 142.03125 165.582031 154.832031 172.429688 C 166.800781 178.828125 172.042969 191.402344 172.070312 207.636719 C 172.09375 219.769531 169.242188 246.890625 166.8125 266.835938 C 164.378906 286.777344 162.261719 326.398438 182.839844 340.828125 C 182.839844 340.828125 151.140625 339.503906 135.304688 321.59375 C 119.011719 303.171875 121 271.421875 122.28125 255.3125 C 123.855469 235.503906 126.015625 189.898438 126.015625 189.898438 Z M 133.375 172.429688 " fill-opacity="1" fill-rule="evenodd"/><path fill="#4c9d94" d="M 113.488281 86.996094 C 115.140625 91.058594 116.953125 96.726562 117.546875 103.113281 C 117.601562 103.691406 117.175781 104.203125 116.59375 104.257812 C 116.015625 104.3125 115.5 103.886719 115.449219 103.308594 C 114.847656 96.863281 112.960938 91.175781 111.3125 87.246094 Z M 98.488281 88.707031 L 99.371094 88.605469 C 100.925781 93.390625 102.566406 99.289062 102.671875 103.179688 C 102.691406 103.761719 102.230469 104.246094 101.648438 104.261719 C 101.070312 104.28125 100.582031 103.820312 100.566406 103.238281 C 100.460938 99.394531 98.796875 93.523438 97.25 88.847656 Z M 128.6875 85.253906 C 133.753906 94.6875 133.671875 103.21875 133.671875 103.21875 C 133.671875 103.796875 133.191406 104.269531 132.613281 104.261719 C 132.03125 104.257812 131.5625 103.78125 131.566406 103.199219 C 131.566406 103.199219 131.621094 94.714844 126.421875 85.515625 Z M 128.6875 85.253906 " fill-opacity="1" fill-rule="evenodd"/><path fill="#5c4340" d="M 171.574219 142.253906 C 170.113281 144.164062 161.59375 154 141.695312 152.808594 C 141.113281 152.773438 140.671875 152.277344 140.707031 151.695312 C 140.742188 151.113281 141.238281 150.671875 141.820312 150.707031 C 160.496094 151.824219 168.519531 142.734375 169.851562 141.03125 L 167.816406 139.582031 C 167.34375 139.246094 167.230469 138.589844 167.570312 138.113281 C 167.90625 137.636719 168.5625 137.527344 169.039062 137.863281 L 174.039062 141.417969 C 174.511719 141.753906 174.625 142.414062 174.289062 142.886719 C 173.953125 143.363281 173.292969 143.472656 172.820312 143.136719 Z M 171.574219 142.253906 " fill-opacity="1" fill-rule="evenodd"/><path fill="#5c4340" d="M 194.289062 91.992188 C 194.289062 92.355469 194.324219 92.714844 194.394531 93.074219 C 194.46875 93.429688 194.570312 93.773438 194.710938 94.109375 C 194.851562 94.445312 195.019531 94.765625 195.222656 95.066406 C 195.421875 95.367188 195.652344 95.648438 195.910156 95.90625 C 196.167969 96.160156 196.445312 96.390625 196.746094 96.59375 C 197.050781 96.792969 197.367188 96.964844 197.703125 97.105469 C 198.039062 97.242188 198.382812 97.347656 198.738281 97.417969 C 199.097656 97.488281 199.457031 97.523438 199.820312 97.523438 C 200.183594 97.523438 200.542969 97.488281 200.898438 97.417969 C 201.253906 97.347656 201.597656 97.242188 201.933594 97.105469 C 202.269531 96.964844 202.589844 96.792969 202.890625 96.59375 C 203.191406 96.390625 203.472656 96.160156 203.726562 95.90625 C 203.984375 95.648438 204.214844 95.367188 204.414062 95.066406 C 204.617188 94.765625 204.789062 94.445312 204.925781 94.109375 C 205.066406 93.773438 205.171875 93.429688 205.242188 93.074219 C 205.3125 92.714844 205.347656 92.355469 205.347656 91.992188 C 205.347656 91.628906 205.3125 91.269531 205.242188 90.914062 C 205.171875 90.558594 205.066406 90.210938 204.925781 89.875 C 204.789062 89.539062 204.617188 89.222656 204.414062 88.921875 C 204.214844 88.617188 203.984375 88.339844 203.726562 88.082031 C 203.472656 87.824219 203.191406 87.597656 202.890625 87.394531 C 202.589844 87.191406 202.269531 87.023438 201.933594 86.882812 C 201.597656 86.742188 201.253906 86.640625 200.898438 86.566406 C 200.542969 86.496094 200.183594 86.460938 199.820312 86.460938 C 199.457031 86.460938 199.097656 86.496094 198.738281 86.566406 C 198.382812 86.640625 198.039062 86.742188 197.703125 86.882812 C 197.367188 87.023438 197.050781 87.191406 196.746094 87.394531 C 196.445312 87.597656 196.167969 87.824219 195.910156 88.082031 C 195.652344 88.339844 195.421875 88.617188 195.222656 88.921875 C 195.019531 89.222656 194.851562 89.539062 194.710938 89.875 C 194.570312 90.210938 194.46875 90.558594 194.394531 90.914062 C 194.324219 91.269531 194.289062 91.628906 194.289062 91.992188 Z M 194.289062 91.992188 " fill-opacity="1" fill-rule="nonzero"/><path fill="#5c4340" d="M 152.210938 81.183594 C 152.210938 81.546875 152.246094 81.90625 152.320312 82.261719 C 152.390625 82.617188 152.496094 82.964844 152.632812 83.300781 C 152.773438 83.636719 152.941406 83.953125 153.144531 84.253906 C 153.347656 84.558594 153.574219 84.835938 153.832031 85.09375 C 154.089844 85.351562 154.367188 85.578125 154.667969 85.78125 C 154.972656 85.984375 155.289062 86.152344 155.625 86.292969 C 155.960938 86.433594 156.304688 86.535156 156.664062 86.609375 C 157.019531 86.679688 157.378906 86.714844 157.742188 86.714844 C 158.105469 86.714844 158.464844 86.679688 158.820312 86.609375 C 159.175781 86.535156 159.519531 86.433594 159.855469 86.292969 C 160.191406 86.152344 160.511719 85.984375 160.8125 85.78125 C 161.113281 85.578125 161.394531 85.351562 161.648438 85.09375 C 161.90625 84.835938 162.136719 84.558594 162.339844 84.253906 C 162.539062 83.953125 162.710938 83.636719 162.847656 83.300781 C 162.988281 82.964844 163.09375 82.617188 163.164062 82.261719 C 163.234375 81.90625 163.269531 81.546875 163.269531 81.183594 C 163.269531 80.820312 163.234375 80.460938 163.164062 80.101562 C 163.09375 79.746094 162.988281 79.402344 162.847656 79.066406 C 162.710938 78.730469 162.539062 78.410156 162.339844 78.109375 C 162.136719 77.808594 161.90625 77.527344 161.648438 77.269531 C 161.394531 77.015625 161.113281 76.785156 160.8125 76.582031 C 160.511719 76.382812 160.191406 76.210938 159.855469 76.070312 C 159.519531 75.933594 159.175781 75.828125 158.820312 75.757812 C 158.464844 75.6875 158.105469 75.652344 157.742188 75.652344 C 157.378906 75.652344 157.019531 75.6875 156.664062 75.757812 C 156.304688 75.828125 155.960938 75.933594 155.625 76.070312 C 155.289062 76.210938 154.972656 76.382812 154.667969 76.582031 C 154.367188 76.785156 154.089844 77.015625 153.832031 77.269531 C 153.574219 77.527344 153.347656 77.808594 153.144531 78.109375 C 152.941406 78.410156 152.773438 78.730469 152.632812 79.066406 C 152.496094 79.402344 152.390625 79.746094 152.320312 80.101562 C 152.246094 80.460938 152.210938 80.820312 152.210938 81.183594 Z M 152.210938 81.183594 " fill-opacity="1" fill-rule="nonzero"/><path fill="#ea7992" d="M 185.730469 123.804688 C 185.730469 124.242188 185.800781 124.675781 185.933594 125.105469 C 186.066406 125.535156 186.265625 125.949219 186.53125 126.355469 C 186.792969 126.757812 187.113281 127.140625 187.496094 127.507812 C 187.878906 127.871094 188.3125 128.207031 188.800781 128.515625 C 189.285156 128.824219 189.816406 129.101562 190.386719 129.34375 C 190.957031 129.585938 191.5625 129.792969 192.195312 129.960938 C 192.832031 130.125 193.488281 130.253906 194.160156 130.339844 C 194.835938 130.421875 195.515625 130.464844 196.203125 130.464844 C 196.890625 130.464844 197.574219 130.421875 198.246094 130.339844 C 198.921875 130.253906 199.578125 130.125 200.210938 129.960938 C 200.847656 129.792969 201.449219 129.585938 202.023438 129.34375 C 202.59375 129.101562 203.121094 128.824219 203.609375 128.515625 C 204.09375 128.207031 204.53125 127.871094 204.910156 127.507812 C 205.292969 127.140625 205.617188 126.757812 205.878906 126.355469 C 206.140625 125.949219 206.339844 125.535156 206.476562 125.105469 C 206.609375 124.675781 206.675781 124.242188 206.675781 123.804688 C 206.675781 123.367188 206.609375 122.933594 206.476562 122.507812 C 206.339844 122.078125 206.140625 121.660156 205.878906 121.257812 C 205.617188 120.851562 205.292969 120.46875 204.910156 120.105469 C 204.53125 119.742188 204.09375 119.40625 203.609375 119.097656 C 203.121094 118.785156 202.59375 118.511719 202.023438 118.269531 C 201.449219 118.023438 200.847656 117.820312 200.210938 117.652344 C 199.578125 117.484375 198.921875 117.359375 198.246094 117.273438 C 197.574219 117.1875 196.890625 117.144531 196.203125 117.144531 C 195.515625 117.144531 194.835938 117.1875 194.160156 117.273438 C 193.488281 117.359375 192.832031 117.484375 192.195312 117.652344 C 191.5625 117.820312 190.957031 118.023438 190.386719 118.269531 C 189.816406 118.511719 189.285156 118.785156 188.800781 119.097656 C 188.3125 119.40625 187.878906 119.742188 187.496094 120.105469 C 187.113281 120.46875 186.792969 120.851562 186.53125 121.257812 C 186.265625 121.660156 186.066406 122.078125 185.933594 122.507812 C 185.800781 122.933594 185.730469 123.367188 185.730469 123.804688 Z M 185.730469 123.804688 " fill-opacity="1" fill-rule="nonzero"/><path fill="#5c4340" d="M 62.308594 106.195312 C 62.308594 106.195312 61.496094 106.855469 60.875 107.632812 C 60.511719 108.085938 59.847656 108.160156 59.390625 107.796875 C 58.9375 107.433594 58.867188 106.769531 59.230469 106.3125 C 59.988281 105.367188 60.976562 104.5625 60.976562 104.5625 C 61.429688 104.191406 62.09375 104.261719 62.460938 104.710938 C 62.828125 105.164062 62.761719 105.828125 62.308594 106.195312 Z M 62.308594 106.195312 " fill-opacity="1" fill-rule="evenodd"/><path fill="#5c4340" d="M 51.609375 105.503906 C 51.609375 105.503906 52.257812 106.320312 52.695312 107.214844 C 52.953125 107.738281 53.585938 107.953125 54.105469 107.699219 C 54.628906 107.441406 54.84375 106.808594 54.589844 106.289062 C 54.054688 105.195312 53.261719 104.195312 53.261719 104.195312 C 52.902344 103.738281 52.238281 103.660156 51.785156 104.019531 C 51.328125 104.378906 51.25 105.046875 51.609375 105.503906 Z M 51.609375 105.503906 " fill-opacity="1" fill-rule="evenodd"/><path fill="#4c9d94" d="M 218.328125 276.28125 C 218.328125 276.28125 216.34375 272.6875 215.742188 266.457031 C 215.683594 265.878906 216.109375 265.363281 216.6875 265.304688 C 217.265625 265.25 217.78125 265.675781 217.839844 266.253906 C 218.390625 271.96875 220.175781 275.269531 220.175781 275.269531 C 220.457031 275.78125 220.269531 276.421875 219.757812 276.703125 C 219.246094 276.980469 218.605469 276.792969 218.328125 276.28125 Z M 216.351562 250.527344 C 216.351562 250.527344 216.351562 245.71875 217.308594 241.007812 C 217.425781 240.4375 217.980469 240.066406 218.550781 240.183594 C 219.121094 240.296875 219.488281 240.855469 219.375 241.425781 C 218.460938 245.929688 218.457031 250.53125 218.457031 250.53125 C 218.457031 251.113281 217.984375 251.585938 217.402344 251.585938 C 216.824219 251.585938 216.351562 251.109375 216.351562 250.527344 Z M 219.617188 214.949219 C 219.617188 214.949219 218.914062 219.582031 217.921875 224.777344 C 217.816406 225.347656 217.261719 225.726562 216.691406 225.617188 C 216.121094 225.507812 215.742188 224.957031 215.851562 224.382812 C 216.835938 219.226562 217.535156 214.632812 217.535156 214.632812 C 217.625 214.058594 218.160156 213.660156 218.734375 213.75 C 219.3125 213.835938 219.707031 214.375 219.617188 214.949219 Z M 226.226562 202.164062 C 226.226562 202.164062 225.757812 206.957031 224.355469 211.554688 C 224.1875 212.109375 223.597656 212.421875 223.042969 212.253906 C 222.484375 212.082031 222.171875 211.492188 222.34375 210.9375 C 223.683594 206.542969 224.128906 201.960938 224.128906 201.960938 C 224.183594 201.382812 224.699219 200.957031 225.277344 201.015625 C 225.855469 201.070312 226.28125 201.585938 226.226562 202.164062 Z M 224.226562 176.191406 C 224.226562 176.191406 224.363281 181.003906 223.542969 185.742188 C 223.445312 186.3125 222.898438 186.699219 222.324219 186.597656 C 221.753906 186.5 221.367188 185.953125 221.464844 185.378906 C 222.25 180.851562 222.121094 176.25 222.121094 176.25 C 222.105469 175.667969 222.5625 175.183594 223.144531 175.167969 C 223.726562 175.152344 224.210938 175.609375 224.226562 176.191406 Z M 229.21875 163.785156 C 229.21875 163.785156 229.648438 168.578125 229.117188 173.355469 C 229.054688 173.933594 228.535156 174.351562 227.957031 174.285156 C 227.378906 174.222656 226.960938 173.699219 227.023438 173.121094 C 227.53125 168.554688 227.121094 163.972656 227.121094 163.972656 C 227.066406 163.394531 227.496094 162.878906 228.078125 162.828125 C 228.65625 162.777344 229.167969 163.203125 229.21875 163.785156 Z M 223.820312 149.5 C 223.820312 149.5 224.25 154.292969 223.71875 159.070312 C 223.65625 159.648438 223.136719 160.066406 222.558594 160 C 221.980469 159.9375 221.5625 159.414062 221.625 158.835938 C 222.132812 154.269531 221.722656 149.6875 221.722656 149.6875 C 221.671875 149.105469 222.097656 148.59375 222.679688 148.542969 C 223.257812 148.492188 223.769531 148.917969 223.820312 149.5 Z M 223.820312 149.5 " fill-opacity="1" fill-rule="evenodd"/><path fill="#886bcb" d="M 155.113281 238.277344 C 155.074219 224.445312 155.808594 199.203125 152.109375 195.429688 C 148.410156 191.652344 122.800781 191.390625 106.714844 192.007812 C 90.625 192.625 74.214844 190.792969 73.257812 200.207031 C 72.300781 209.621094 72.109375 241.691406 72.726562 253.90625 C 73.105469 261.375 76.5 263.96875 83.664062 264.527344 C 93.445312 265.285156 140.140625 264.859375 148.90625 263.5 C 155.164062 262.53125 155.15625 254.421875 155.113281 238.277344 Z M 155.113281 238.277344 " fill-opacity="1" fill-rule="evenodd"/><path fill="#f6a45f" d="M 118.226562 193.574219 C 138.328125 191.742188 141.027344 178.625 133.867188 174.539062 C 123.621094 168.695312 112.792969 189.792969 112.792969 189.792969 C 99.46875 163.71875 81.210938 178.554688 89.027344 187.351562 C 93.996094 192.941406 102.25 194.023438 107.605469 194.070312 C 107.234375 200.128906 107.160156 210.097656 107.230469 220.867188 C 93.230469 220.984375 79.957031 221.253906 72.445312 221.796875 C 72.398438 225.582031 72.371094 229.507812 72.371094 233.320312 L 107.351562 232.660156 C 107.53125 245.542969 107.839844 257.976562 108.023438 264.886719 C 111.316406 264.867188 114.714844 264.835938 118.085938 264.789062 C 118.546875 257.71875 118.667969 245.257812 118.640625 232.449219 L 155.128906 231.761719 C 155.144531 228.332031 155.160156 224.605469 155.132812 220.886719 C 147.714844 220.832031 133.503906 220.753906 118.578125 220.804688 C 118.488281 209.550781 118.328125 199.257812 118.226562 193.574219 Z M 118.226562 193.574219 " fill-opacity="1" fill-rule="evenodd"/><path fill="#ea7992" d="M 126.707031 184.445312 C 126.707031 184.445312 115.984375 192.914062 113.117188 194.144531 C 112.824219 194.269531 112.488281 194.253906 112.203125 194.105469 C 112.203125 194.105469 103.648438 189.535156 98.066406 184.390625 C 97.636719 184 97.609375 183.328125 98.003906 182.902344 C 98.398438 182.472656 99.066406 182.449219 99.492188 182.84375 C 104.132812 187.117188 110.90625 190.980469 112.730469 191.988281 C 116.019531 190.25 125.398438 182.789062 125.398438 182.789062 C 125.855469 182.429688 126.519531 182.507812 126.878906 182.960938 C 127.238281 183.417969 127.164062 184.082031 126.707031 184.445312 Z M 126.707031 184.445312 " fill-opacity="1" fill-rule="evenodd"/><path fill="#79c4b3" d="M 173.113281 225.792969 C 173.113281 225.792969 164.578125 231.355469 153.367188 233.109375 C 142.675781 234.78125 138.183594 233.363281 145 228.4375 C 145 228.4375 137.460938 229.210938 136.234375 225.792969 C 135.011719 222.378906 141.921875 220.800781 141.921875 220.800781 C 141.921875 220.800781 135.378906 220.519531 135.105469 216.394531 C 134.917969 213.625 139.546875 213.546875 146.351562 212.121094 C 152.125 210.914062 166.25 203.074219 173.113281 197.109375 C 178.796875 192.167969 178.628906 214.613281 173.113281 225.792969 Z M 173.113281 225.792969 " fill-opacity="1" fill-rule="evenodd"/><path fill="#4c9d94" d="M 172.945312 224.605469 C 172.945312 224.605469 182.917969 218.191406 191.875 211.101562 C 192.328125 210.742188 192.992188 210.820312 193.351562 211.277344 C 193.714844 211.730469 193.636719 212.394531 193.179688 212.757812 C 184.144531 219.90625 174.085938 226.378906 174.085938 226.378906 C 173.59375 226.695312 172.941406 226.550781 172.628906 226.0625 C 172.3125 225.574219 172.457031 224.921875 172.945312 224.605469 Z M 172.144531 196.550781 C 172.144531 196.550781 179.617188 190.234375 184.355469 184.808594 C 184.738281 184.367188 185.402344 184.324219 185.839844 184.707031 C 186.277344 185.089844 186.324219 185.753906 185.941406 186.191406 C 181.117188 191.722656 173.507812 198.160156 173.507812 198.160156 C 173.0625 198.535156 172.398438 198.480469 172.023438 198.039062 C 171.648438 197.589844 171.703125 196.925781 172.144531 196.550781 Z M 172.144531 196.550781 " fill-opacity="1" fill-rule="evenodd"/></svg>