<svg xmlns="http://www.w3.org/2000/svg" xmlns:xlink="http://www.w3.org/1999/xlink" width="1920" zoomAndPan="magnify" viewBox="0 0 1440 809.999993" height="1080" preserveAspectRatio="xMidYMid meet" version="1.0"><defs><clipPath id="510f6c1a26"><path d="M 100.746094 33.082031 L 134.675781 33.082031 L 134.675781 67.796875 L 100.746094 67.796875 Z M 100.746094 33.082031 " clip-rule="nonzero"/></clipPath><clipPath id="6f1f890ca4"><path d="M 0 0 L 289.5 0 L 289.5 37.125 L 0 37.125 Z M 0 0 " clip-rule="nonzero"/></clipPath><clipPath id="506c5abbe7"><path d="M 431.859375 33.082031 L 465.789062 33.082031 L 465.789062 67.796875 L 431.859375 67.796875 Z M 431.859375 33.082031 " clip-rule="nonzero"/></clipPath><clipPath id="848e3c558b"><path d="M 277.035156 0 L 566.183594 0 L 566.183594 37.125 L 277.035156 37.125 Z M 277.035156 0 " clip-rule="nonzero"/></clipPath><clipPath id="4a88376c98"><path d="M 667.28125 33.082031 L 701.210938 33.082031 L 701.210938 67.796875 L 667.28125 67.796875 Z M 667.28125 33.082031 " clip-rule="nonzero"/></clipPath><clipPath id="76dd4241ca"><path d="M 566.539062 0 L 856.039062 0 L 856.039062 37.125 L 566.539062 37.125 Z M 566.539062 0 " clip-rule="nonzero"/></clipPath><clipPath id="6573077023"><path d="M 1011.570312 33.082031 L 1045.5 33.082031 L 1045.5 67.796875 L 1011.570312 67.796875 Z M 1011.570312 33.082031 " clip-rule="nonzero"/></clipPath><clipPath id="adc0f0b6f0"><path d="M 856.742188 0 L 1145.890625 0 L 1145.890625 37.125 L 856.742188 37.125 Z M 856.742188 0 " clip-rule="nonzero"/></clipPath><clipPath id="19a9aa71fe"><path d="M 1247 33.082031 L 1280.921875 33.082031 L 1280.921875 67.796875 L 1247 67.796875 Z M 1247 33.082031 " clip-rule="nonzero"/></clipPath><clipPath id="0c22b62865"><path d="M 1146.246094 0 L 1435.746094 0 L 1435.746094 37.125 L 1146.246094 37.125 Z M 1146.246094 0 " clip-rule="nonzero"/></clipPath></defs><g clip-path="url(#510f6c1a26)"><path fill="#3ca27a" d="M 104.421875 44.359375 C 102.910156 40.363281 101.746094 36.625 100.832031 33.226562 C 106.425781 34.0625 112.34375 34.78125 118.574219 35.335938 C 124.121094 35.828125 129.457031 36.144531 134.539062 36.324219 C 132.449219 38.988281 130.28125 41.980469 128.097656 45.332031 M 128.097656 45.332031 C 126.976562 47.070312 125.839844 48.894531 124.734375 50.808594 C 121.175781 56.929688 118.515625 62.707031 116.511719 67.796875 C 113.390625 63.140625 110.027344 57.394531 106.960938 50.542969 C 106.019531 48.429688 105.167969 46.367188 104.421875 44.359375 " fill-opacity="1" fill-rule="nonzero"/></g><path fill="#456db8" d="M 159.5 47.621094 C 158.425781 45.902344 157.347656 44.195312 156.273438 42.472656 C 155.71875 41.589844 155.167969 40.707031 154.613281 39.824219 C 153.835938 38.582031 153.058594 37.355469 152.28125 36.113281 C 157.320312 35.917969 162.625 35.574219 168.15625 35.050781 C 174.03125 34.484375 179.621094 33.734375 184.898438 32.898438 C 183.96875 36.457031 182.820312 40.335938 181.339844 44.433594 L 180.382812 47.023438 C 180.128906 47.652344 179.875 48.296875 179.621094 48.9375 M 179.621094 48.9375 C 178.125 52.652344 176.542969 56.078125 174.957031 59.222656 C 174.433594 60.238281 173.925781 61.210938 173.402344 62.167969 C 172.640625 63.574219 171.878906 64.921875 171.144531 66.195312 C 169.949219 64.277344 168.738281 62.363281 167.542969 60.449219 C 167.035156 59.640625 166.527344 58.832031 166.019531 58.007812 C 163.851562 54.550781 161.667969 51.078125 159.5 47.621094 " fill-opacity="1" fill-rule="nonzero"/><path fill="#f14947" d="M 249.589844 14.191406 L 280.109375 35.140625 C 279.660156 29.425781 279.484375 22.914062 279.839844 15.761719 C 280.171875 9.191406 280.917969 3.21875 281.828125 -2.0625 C 277.675781 0.378906 273.265625 2.832031 268.617188 5.242188 C 262.023438 8.652344 255.65625 11.617188 249.589844 14.191406 Z M 71.941406 27.226562 C 76.722656 28.480469 81.355469 29.574219 85.828125 30.515625 C 81.371094 34.347656 76.363281 39.285156 71.433594 45.496094 C 67.875 49.972656 65.003906 54.296875 62.6875 58.234375 C 60.878906 53.398438 59.101562 47.800781 57.652344 41.5 C 56.007812 34.316406 55.140625 27.75 54.707031 22.0625 C 60.085938 23.871094 65.84375 25.625 71.941406 27.226562 " fill-opacity="1" fill-rule="nonzero"/><path fill="#fab540" d="M 280.886719 5.898438 C 281.066406 5.792969 281.128906 5.570312 281.023438 5.390625 L 278.035156 0.078125 C 277.929688 -0.101562 277.703125 -0.164062 277.523438 -0.0585938 C 277.347656 0.046875 277.285156 0.273438 277.390625 0.453125 L 280.382812 5.765625 C 280.457031 5.882812 280.574219 5.957031 280.695312 5.957031 C 280.769531 5.957031 280.828125 5.945312 280.886719 5.898438 Z M 258.902344 19.875 C 259.082031 19.785156 259.15625 19.5625 259.050781 19.382812 L 255.074219 11.765625 C 254.984375 11.585938 254.761719 11.511719 254.582031 11.617188 C 254.402344 11.707031 254.328125 11.929688 254.433594 12.109375 L 258.410156 19.726562 C 258.46875 19.847656 258.601562 19.921875 258.734375 19.921875 C 258.78125 19.921875 258.839844 19.90625 258.902344 19.875 Z M 279.8125 14.90625 C 279.992188 14.816406 280.066406 14.59375 279.976562 14.414062 L 273.984375 2.234375 C 273.894531 2.050781 273.667969 1.976562 273.488281 2.066406 C 273.308594 2.15625 273.234375 2.382812 273.324219 2.5625 L 279.320312 14.726562 C 279.378906 14.863281 279.515625 14.9375 279.648438 14.9375 C 279.710938 14.9375 279.765625 14.921875 279.8125 14.90625 Z M 279.828125 24.664062 C 280.007812 24.574219 280.082031 24.351562 279.976562 24.171875 L 269.78125 4.625 C 269.691406 4.445312 269.46875 4.371094 269.289062 4.476562 C 269.109375 4.566406 269.035156 4.792969 269.140625 4.96875 L 279.335938 24.515625 C 279.394531 24.636719 279.527344 24.710938 279.664062 24.710938 C 279.710938 24.710938 279.765625 24.695312 279.828125 24.664062 Z M 272.277344 29.933594 C 272.445312 29.8125 272.488281 29.589844 272.367188 29.425781 L 259.019531 9.910156 C 258.902344 9.746094 258.675781 9.699219 258.511719 9.820312 C 258.347656 9.9375 258.304688 10.164062 258.421875 10.328125 L 271.773438 29.84375 C 271.847656 29.949219 271.949219 30.007812 272.070312 30.007812 C 272.144531 29.992188 272.21875 29.976562 272.277344 29.933594 Z M 280.292969 35.457031 C 280.472656 35.351562 280.53125 35.125 280.425781 34.945312 L 264.355469 7.363281 C 264.253906 7.1875 264.027344 7.125 263.847656 7.230469 C 263.667969 7.335938 263.609375 7.558594 263.714844 7.738281 L 279.78125 35.320312 C 279.855469 35.441406 279.976562 35.5 280.097656 35.5 C 280.171875 35.515625 280.230469 35.5 280.292969 35.457031 Z M 174.941406 59.234375 C 174.867188 59.222656 174.777344 59.222656 174.6875 59.222656 C 173.699219 59.222656 172.925781 60.015625 172.925781 60.988281 C 172.925781 61.449219 173.105469 61.871094 173.386719 62.183594 Z M 168.5 57.15625 C 167.648438 56.660156 166.570312 56.960938 166.078125 57.800781 C 166.046875 57.859375 166.003906 57.933594 165.972656 58.007812 C 166.480469 58.816406 166.992188 59.625 167.5 60.449219 C 168.140625 60.492188 168.785156 60.164062 169.128906 59.566406 C 169.636719 58.726562 169.351562 57.648438 168.5 57.15625 Z M 180.367188 47.023438 C 180.203125 47.082031 180.011719 47.113281 179.816406 47.113281 C 178.828125 47.113281 178.050781 46.320312 178.050781 45.347656 C 178.050781 44.375 178.84375 43.582031 179.816406 43.582031 C 180.457031 43.582031 181.011719 43.925781 181.324219 44.433594 Z M 171.160156 49.554688 C 170.1875 49.554688 169.398438 50.347656 169.398438 51.320312 C 169.398438 52.292969 170.1875 53.085938 171.160156 53.085938 C 172.132812 53.085938 172.925781 52.292969 172.925781 51.320312 C 172.925781 50.347656 172.132812 49.554688 171.160156 49.554688 Z M 174.6875 36.324219 C 173.714844 36.324219 172.925781 37.117188 172.925781 38.089844 C 172.925781 39.0625 173.714844 39.855469 174.6875 39.855469 C 175.660156 39.855469 176.453125 39.0625 176.453125 38.089844 C 176.453125 37.117188 175.675781 36.324219 174.6875 36.324219 Z M 165.40625 41.800781 C 164.433594 41.800781 163.640625 42.59375 163.640625 43.566406 C 163.640625 44.539062 164.433594 45.332031 165.40625 45.332031 C 166.378906 45.332031 167.167969 44.539062 167.167969 43.566406 C 167.167969 42.59375 166.390625 41.800781 165.40625 41.800781 Z M 156.09375 38.941406 C 155.4375 38.941406 154.867188 39.300781 154.570312 39.824219 C 155.121094 40.707031 155.675781 41.589844 156.226562 42.472656 C 157.15625 42.414062 157.855469 41.652344 157.855469 40.707031 C 157.871094 39.734375 157.082031 38.941406 156.09375 38.941406 Z M 55.257812 27.71875 L 66.097656 25.96875 C 66.289062 25.9375 66.441406 25.742188 66.394531 25.546875 C 66.351562 25.355469 66.171875 25.203125 65.976562 25.25 L 55.140625 27 C 54.945312 27.03125 54.796875 27.222656 54.839844 27.417969 C 54.871094 27.597656 55.019531 27.734375 55.199219 27.734375 C 55.230469 27.71875 55.246094 27.71875 55.257812 27.71875 Z M 55.917969 32.449219 L 75.585938 28.511719 C 75.78125 28.46875 75.917969 28.273438 75.871094 28.078125 C 75.828125 27.882812 75.632812 27.75 75.4375 27.792969 L 55.769531 31.730469 C 55.574219 31.773438 55.4375 31.96875 55.484375 32.164062 C 55.511719 32.34375 55.675781 32.460938 55.84375 32.460938 C 55.859375 32.449219 55.886719 32.449219 55.917969 32.449219 Z M 56.753906 37.296875 L 85.902344 30.875 C 86.09375 30.832031 86.230469 30.636719 86.183594 30.441406 C 86.140625 30.246094 85.945312 30.113281 85.753906 30.15625 L 56.605469 36.578125 C 56.410156 36.625 56.277344 36.816406 56.320312 37.011719 C 56.367188 37.191406 56.515625 37.296875 56.679688 37.296875 C 56.710938 37.3125 56.722656 37.296875 56.753906 37.296875 Z M 57.742188 41.859375 L 81.34375 35.050781 C 81.535156 34.992188 81.65625 34.796875 81.597656 34.585938 C 81.535156 34.394531 81.34375 34.273438 81.132812 34.332031 L 57.53125 41.15625 C 57.335938 41.21875 57.21875 41.414062 57.277344 41.621094 C 57.320312 41.785156 57.472656 41.890625 57.636719 41.890625 C 57.664062 41.875 57.710938 41.875 57.742188 41.859375 Z M 58.90625 46.394531 L 77.335938 39.152344 C 77.53125 39.078125 77.621094 38.867188 77.546875 38.671875 C 77.472656 38.480469 77.261719 38.390625 77.066406 38.464844 L 58.636719 45.707031 C 58.441406 45.78125 58.355469 45.992188 58.429688 46.1875 C 58.488281 46.335938 58.621094 46.425781 58.773438 46.425781 C 58.816406 46.425781 58.863281 46.410156 58.90625 46.394531 Z M 60.207031 50.839844 L 72.210938 45.0625 C 72.390625 44.972656 72.464844 44.75 72.390625 44.570312 C 72.300781 44.390625 72.074219 44.316406 71.894531 44.390625 L 59.894531 50.167969 C 59.714844 50.257812 59.640625 50.480469 59.714844 50.660156 C 59.773438 50.796875 59.90625 50.871094 60.042969 50.871094 C 60.101562 50.886719 60.148438 50.871094 60.207031 50.839844 Z M 61.253906 54.085938 L 67.828125 50.839844 C 68.007812 50.75 68.082031 50.527344 67.996094 50.347656 C 67.90625 50.167969 67.679688 50.09375 67.5 50.183594 L 60.925781 53.429688 C 60.746094 53.519531 60.671875 53.742188 60.757812 53.921875 C 60.820312 54.058594 60.953125 54.132812 61.089844 54.132812 C 61.148438 54.117188 61.195312 54.117188 61.253906 54.085938 Z M 202.96875 29.378906 L 228.140625 56.0625 C 229.558594 52.203125 230.921875 47.964844 232.113281 43.371094 C 234.390625 34.601562 235.539062 26.535156 236.046875 19.546875 C 230.890625 21.433594 225.359375 23.289062 219.484375 25.023438 C 213.746094 26.730469 208.214844 28.167969 202.96875 29.378906 Z M 26.097656 10.734375 C 30.746094 12.871094 35.273438 14.804688 39.640625 16.554688 C 36.035156 19.382812 32.285156 22.554688 28.457031 26.117188 C 22.597656 31.566406 17.589844 36.980469 13.347656 42.039062 C 11.808594 35.828125 10.449219 28.617188 9.640625 20.535156 C 8.96875 13.816406 8.804688 7.632812 8.921875 2.097656 C 14.230469 5 19.953125 7.902344 26.097656 10.734375 " fill-opacity="1" fill-rule="nonzero"/><g clip-path="url(#6f1f890ca4)"><path fill="#f79748" d="M 140.292969 35.589844 C 143.464844 35.605469 146.648438 35.558594 149.890625 35.46875 C 211.621094 33.628906 259.273438 11.40625 288.378906 -6.910156 C 288.722656 -7.121094 289.167969 -7.03125 289.394531 -6.6875 C 289.601562 -6.34375 289.515625 -5.894531 289.167969 -5.667969 C 259.902344 12.753906 211.996094 35.097656 149.933594 36.9375 C 147.15625 37.027344 144.390625 37.058594 141.667969 37.058594 C 139.859375 37.058594 138.050781 37.042969 136.273438 36.996094 M 136.273438 36.996094 C 76.648438 35.84375 29.878906 15.566406 0.355469 -1.929688 C 0.015625 -2.136719 -0.105469 -2.585938 0.101562 -2.945312 C 0.3125 -3.289062 0.761719 -3.410156 1.121094 -3.199219 C 31.117188 14.609375 79.101562 35.289062 140.292969 35.589844 " fill-opacity="1" fill-rule="nonzero"/></g><g clip-path="url(#506c5abbe7)"><path fill="#3ca27a" d="M 462.113281 44.359375 C 463.621094 40.363281 464.789062 36.625 465.699219 33.226562 C 460.109375 34.0625 454.191406 34.78125 447.957031 35.335938 C 442.410156 35.828125 437.074219 36.144531 431.992188 36.324219 C 434.085938 38.988281 436.253906 41.980469 438.4375 45.332031 M 438.4375 45.332031 C 439.558594 47.070312 440.691406 48.894531 441.800781 50.808594 C 445.355469 56.929688 448.015625 62.707031 450.019531 67.796875 C 453.144531 63.140625 456.507812 57.394531 459.570312 50.542969 C 460.511719 48.429688 461.367188 46.367188 462.113281 44.359375 " fill-opacity="1" fill-rule="nonzero"/></g><path fill="#456db8" d="M 407.03125 47.621094 C 408.109375 45.902344 409.183594 44.195312 410.261719 42.472656 C 410.8125 41.589844 411.367188 40.707031 411.921875 39.824219 C 412.695312 38.582031 413.476562 37.355469 414.253906 36.113281 C 409.214844 35.917969 403.910156 35.574219 398.378906 35.050781 C 392.503906 34.484375 386.914062 33.734375 381.636719 32.898438 C 382.5625 36.457031 383.714844 40.335938 385.195312 44.433594 L 386.152344 47.023438 C 386.40625 47.652344 386.660156 48.296875 386.914062 48.9375 M 386.914062 48.9375 C 388.40625 52.652344 389.992188 56.078125 391.578125 59.222656 C 392.101562 60.238281 392.609375 61.210938 393.132812 62.167969 C 393.894531 63.574219 394.65625 64.921875 395.390625 66.195312 C 396.585938 64.277344 397.792969 62.363281 398.992188 60.449219 C 399.5 59.640625 400.007812 58.832031 400.515625 58.007812 C 402.683594 54.550781 404.863281 51.078125 407.03125 47.621094 " fill-opacity="1" fill-rule="nonzero"/><path fill="#f14947" d="M 316.945312 14.191406 L 286.421875 35.140625 C 286.871094 29.425781 287.050781 22.914062 286.691406 15.761719 C 286.363281 9.191406 285.613281 3.21875 284.703125 -2.0625 C 288.859375 0.378906 293.269531 2.832031 297.917969 5.242188 C 304.511719 8.652344 310.875 11.617188 316.945312 14.191406 Z M 494.59375 27.226562 C 489.8125 28.480469 485.175781 29.574219 480.707031 30.515625 C 485.160156 34.347656 490.167969 39.285156 495.101562 45.496094 C 498.660156 49.972656 501.527344 54.296875 503.847656 58.234375 C 505.65625 53.398438 507.433594 47.800781 508.882812 41.5 C 510.527344 34.316406 511.394531 27.75 511.828125 22.0625 C 506.445312 23.871094 500.691406 25.625 494.59375 27.226562 " fill-opacity="1" fill-rule="nonzero"/><path fill="#fab540" d="M 285.644531 5.898438 C 285.464844 5.792969 285.40625 5.570312 285.511719 5.390625 L 288.5 0.078125 C 288.605469 -0.101562 288.828125 -0.164062 289.007812 -0.0585938 C 289.1875 0.046875 289.246094 0.273438 289.144531 0.453125 L 286.152344 5.765625 C 286.078125 5.882812 285.960938 5.957031 285.839844 5.957031 C 285.765625 5.957031 285.703125 5.945312 285.644531 5.898438 Z M 307.632812 19.875 C 307.453125 19.785156 307.378906 19.5625 307.484375 19.382812 L 311.460938 11.765625 C 311.546875 11.585938 311.773438 11.511719 311.953125 11.617188 C 312.132812 11.707031 312.207031 11.929688 312.101562 12.109375 L 308.125 19.726562 C 308.066406 19.847656 307.933594 19.921875 307.796875 19.921875 C 307.753906 19.921875 307.691406 19.90625 307.632812 19.875 Z M 286.722656 14.90625 C 286.542969 14.816406 286.464844 14.59375 286.554688 14.414062 L 292.550781 2.234375 C 292.640625 2.050781 292.863281 1.976562 293.042969 2.066406 C 293.222656 2.15625 293.296875 2.382812 293.207031 2.5625 L 287.214844 14.726562 C 287.15625 14.863281 287.019531 14.9375 286.886719 14.9375 C 286.824219 14.9375 286.765625 14.921875 286.722656 14.90625 Z M 286.707031 24.664062 C 286.527344 24.574219 286.453125 24.351562 286.554688 24.171875 L 296.75 4.625 C 296.839844 4.445312 297.066406 4.371094 297.246094 4.476562 C 297.421875 4.566406 297.496094 4.792969 297.394531 4.96875 L 287.199219 24.515625 C 287.140625 24.636719 287.003906 24.710938 286.871094 24.710938 C 286.824219 24.710938 286.765625 24.695312 286.707031 24.664062 Z M 294.253906 29.933594 C 294.089844 29.8125 294.042969 29.589844 294.164062 29.425781 L 307.511719 9.910156 C 307.632812 9.746094 307.855469 9.699219 308.023438 9.820312 C 308.1875 9.9375 308.230469 10.164062 308.113281 10.328125 L 294.761719 29.84375 C 294.6875 29.949219 294.582031 30.007812 294.464844 30.007812 C 294.390625 29.992188 294.3125 29.976562 294.253906 29.933594 Z M 286.242188 35.457031 C 286.0625 35.351562 286.003906 35.125 286.109375 34.945312 L 302.175781 7.363281 C 302.28125 7.1875 302.507812 7.125 302.683594 7.230469 C 302.863281 7.335938 302.921875 7.558594 302.820312 7.738281 L 286.75 35.320312 C 286.675781 35.441406 286.554688 35.5 286.4375 35.5 C 286.363281 35.515625 286.300781 35.5 286.242188 35.457031 Z M 391.589844 59.234375 C 391.667969 59.222656 391.757812 59.222656 391.847656 59.222656 C 392.832031 59.222656 393.609375 60.015625 393.609375 60.988281 C 393.609375 61.449219 393.429688 61.871094 393.148438 62.183594 Z M 398.035156 57.15625 C 398.886719 56.660156 399.960938 56.960938 400.457031 57.800781 C 400.484375 57.859375 400.53125 57.933594 400.558594 58.007812 C 400.050781 58.816406 399.542969 59.625 399.035156 60.449219 C 398.394531 60.492188 397.75 60.164062 397.40625 59.566406 C 396.898438 58.726562 397.183594 57.648438 398.035156 57.15625 Z M 386.164062 47.023438 C 386.332031 47.082031 386.523438 47.113281 386.71875 47.113281 C 387.707031 47.113281 388.484375 46.320312 388.484375 45.347656 C 388.484375 44.375 387.691406 43.582031 386.71875 43.582031 C 386.074219 43.582031 385.523438 43.925781 385.210938 44.433594 Z M 395.375 49.554688 C 396.34375 49.554688 397.136719 50.347656 397.136719 51.320312 C 397.136719 52.292969 396.34375 53.085938 395.375 53.085938 C 394.402344 53.085938 393.609375 52.292969 393.609375 51.320312 C 393.609375 50.347656 394.402344 49.554688 395.375 49.554688 Z M 391.847656 36.324219 C 392.816406 36.324219 393.609375 37.117188 393.609375 38.089844 C 393.609375 39.0625 392.816406 39.855469 391.847656 39.855469 C 390.875 39.855469 390.082031 39.0625 390.082031 38.089844 C 390.082031 37.117188 390.859375 36.324219 391.847656 36.324219 Z M 401.128906 41.800781 C 402.101562 41.800781 402.890625 42.59375 402.890625 43.566406 C 402.890625 44.539062 402.101562 45.332031 401.128906 45.332031 C 400.15625 45.332031 399.363281 44.539062 399.363281 43.566406 C 399.363281 42.59375 400.140625 41.800781 401.128906 41.800781 Z M 410.441406 38.941406 C 411.097656 38.941406 411.667969 39.300781 411.964844 39.824219 C 411.414062 40.707031 410.859375 41.589844 410.304688 42.472656 C 409.378906 42.414062 408.675781 41.652344 408.675781 40.707031 C 408.660156 39.734375 409.453125 38.941406 410.441406 38.941406 Z M 511.273438 27.71875 L 500.4375 25.96875 C 500.242188 25.9375 500.09375 25.742188 500.136719 25.546875 C 500.183594 25.355469 500.363281 25.203125 500.558594 25.25 L 511.394531 27 C 511.589844 27.03125 511.738281 27.222656 511.691406 27.417969 C 511.664062 27.597656 511.515625 27.734375 511.335938 27.734375 C 511.304688 27.71875 511.289062 27.71875 511.273438 27.71875 Z M 510.617188 32.449219 L 490.945312 28.511719 C 490.753906 28.46875 490.617188 28.273438 490.664062 28.078125 C 490.707031 27.882812 490.902344 27.75 491.09375 27.792969 L 510.765625 31.730469 C 510.960938 31.773438 511.09375 31.96875 511.050781 32.164062 C 511.019531 32.34375 510.855469 32.460938 510.691406 32.460938 C 510.675781 32.449219 510.648438 32.449219 510.617188 32.449219 Z M 509.78125 37.296875 L 480.632812 30.875 C 480.4375 30.832031 480.304688 30.636719 480.347656 30.441406 C 480.394531 30.246094 480.589844 30.113281 480.78125 30.15625 L 509.929688 36.578125 C 510.125 36.625 510.257812 36.816406 510.214844 37.011719 C 510.167969 37.191406 510.019531 37.296875 509.855469 37.296875 C 509.824219 37.3125 509.808594 37.296875 509.78125 37.296875 Z M 508.792969 41.859375 L 485.191406 35.050781 C 484.996094 34.992188 484.878906 34.796875 484.9375 34.585938 C 484.996094 34.394531 485.191406 34.273438 485.402344 34.332031 L 509.003906 41.15625 C 509.195312 41.21875 509.316406 41.414062 509.257812 41.621094 C 509.210938 41.785156 509.0625 41.890625 508.898438 41.890625 C 508.867188 41.875 508.824219 41.875 508.792969 41.859375 Z M 507.628906 46.394531 L 489.195312 39.152344 C 489.003906 39.078125 488.914062 38.867188 488.988281 38.671875 C 489.0625 38.480469 489.273438 38.390625 489.464844 38.464844 L 507.898438 45.707031 C 508.089844 45.78125 508.179688 45.992188 508.105469 46.1875 C 508.046875 46.335938 507.910156 46.425781 507.761719 46.425781 C 507.71875 46.425781 507.671875 46.410156 507.628906 46.394531 Z M 506.328125 50.839844 L 494.324219 45.0625 C 494.144531 44.972656 494.070312 44.75 494.144531 44.570312 C 494.234375 44.390625 494.457031 44.316406 494.636719 44.390625 L 506.640625 50.167969 C 506.820312 50.257812 506.894531 50.480469 506.820312 50.660156 C 506.761719 50.796875 506.625 50.871094 506.492188 50.871094 C 506.429688 50.886719 506.386719 50.871094 506.328125 50.839844 Z M 505.28125 54.085938 L 498.703125 50.839844 C 498.523438 50.75 498.449219 50.527344 498.539062 50.347656 C 498.628906 50.167969 498.851562 50.09375 499.03125 50.183594 L 505.609375 53.429688 C 505.789062 53.519531 505.863281 53.742188 505.773438 53.921875 C 505.714844 54.058594 505.578125 54.132812 505.445312 54.132812 C 505.386719 54.117188 505.339844 54.117188 505.28125 54.085938 Z M 363.5625 29.378906 L 338.394531 56.0625 C 336.972656 52.203125 335.613281 47.964844 334.417969 43.371094 C 332.144531 34.601562 330.996094 26.535156 330.484375 19.546875 C 335.644531 21.433594 341.175781 23.289062 347.046875 25.023438 C 352.789062 26.730469 358.320312 28.167969 363.5625 29.378906 Z M 540.4375 10.734375 C 535.789062 12.871094 531.257812 14.804688 526.894531 16.554688 C 530.496094 19.382812 534.25 22.554688 538.074219 26.117188 C 543.933594 31.566406 548.941406 36.980469 553.1875 42.039062 C 554.726562 35.828125 556.085938 28.617188 556.894531 20.535156 C 557.566406 13.816406 557.730469 7.632812 557.613281 2.097656 C 552.304688 5 546.582031 7.902344 540.4375 10.734375 " fill-opacity="1" fill-rule="nonzero"/><g clip-path="url(#848e3c558b)"><path fill="#f79748" d="M 426.238281 35.589844 C 423.070312 35.605469 419.886719 35.558594 416.644531 35.46875 C 354.910156 33.628906 307.257812 11.40625 278.15625 -6.910156 C 277.8125 -7.121094 277.363281 -7.03125 277.140625 -6.6875 C 276.929688 -6.34375 277.019531 -5.894531 277.363281 -5.667969 C 306.628906 12.753906 354.535156 35.097656 416.597656 36.9375 C 419.378906 37.027344 422.144531 37.058594 424.863281 37.058594 C 426.671875 37.058594 428.480469 37.042969 430.261719 36.996094 M 430.261719 36.996094 C 489.886719 35.84375 536.65625 15.566406 566.175781 -1.929688 C 566.519531 -2.136719 566.640625 -2.585938 566.429688 -2.945312 C 566.222656 -3.289062 565.773438 -3.410156 565.414062 -3.199219 C 535.414062 14.609375 487.433594 35.289062 426.238281 35.589844 " fill-opacity="1" fill-rule="nonzero"/></g><g clip-path="url(#4a88376c98)"><path fill="#3ca27a" d="M 670.957031 44.359375 C 669.449219 40.363281 668.28125 36.625 667.371094 33.226562 C 672.960938 34.0625 678.878906 34.78125 685.113281 35.335938 C 690.660156 35.828125 695.996094 36.144531 701.078125 36.324219 C 698.984375 38.988281 696.816406 41.980469 694.636719 45.332031 M 694.636719 45.332031 C 693.515625 47.070312 692.378906 48.894531 691.273438 50.808594 C 687.714844 56.929688 685.054688 62.707031 683.050781 67.796875 C 679.925781 63.140625 676.5625 57.394531 673.5 50.542969 C 672.558594 48.429688 671.707031 46.367188 670.957031 44.359375 " fill-opacity="1" fill-rule="nonzero"/></g><path fill="#456db8" d="M 726.039062 47.621094 C 724.960938 45.902344 723.886719 44.195312 722.808594 42.472656 C 722.257812 41.589844 721.703125 40.707031 721.152344 39.824219 C 720.375 38.582031 719.597656 37.355469 718.820312 36.113281 C 723.855469 35.917969 729.164062 35.574219 734.691406 35.050781 C 740.566406 34.484375 746.160156 33.734375 751.433594 32.898438 C 750.507812 36.457031 749.355469 40.335938 747.878906 44.433594 L 746.921875 47.023438 C 746.667969 47.652344 746.414062 48.296875 746.160156 48.9375 M 746.160156 48.9375 C 744.664062 52.652344 743.078125 56.078125 741.496094 59.222656 C 740.972656 60.238281 740.464844 61.210938 739.941406 62.167969 C 739.175781 63.574219 738.414062 64.921875 737.683594 66.195312 C 736.488281 64.277344 735.277344 62.363281 734.082031 60.449219 C 733.570312 59.640625 733.0625 58.832031 732.554688 58.007812 C 730.390625 54.550781 728.207031 51.078125 726.039062 47.621094 " fill-opacity="1" fill-rule="nonzero"/><path fill="#f14947" d="M 816.125 14.191406 L 846.648438 35.140625 C 846.199219 29.425781 846.019531 22.914062 846.378906 15.761719 C 846.707031 9.191406 847.457031 3.21875 848.367188 -2.0625 C 844.210938 0.378906 839.800781 2.832031 835.15625 5.242188 C 828.5625 8.652344 822.195312 11.617188 816.125 14.191406 Z M 638.476562 27.226562 C 643.261719 28.480469 647.894531 29.574219 652.363281 30.515625 C 647.910156 34.347656 642.902344 39.285156 637.96875 45.496094 C 634.414062 49.972656 631.542969 54.296875 629.226562 58.234375 C 627.417969 53.398438 625.636719 47.800781 624.1875 41.5 C 622.542969 34.316406 621.675781 27.75 621.242188 22.0625 C 626.625 23.871094 632.378906 25.625 638.476562 27.226562 " fill-opacity="1" fill-rule="nonzero"/><path fill="#fab540" d="M 847.425781 5.898438 C 847.605469 5.792969 847.664062 5.570312 847.5625 5.390625 L 844.570312 0.078125 C 844.464844 -0.101562 844.242188 -0.164062 844.0625 -0.0585938 C 843.882812 0.046875 843.824219 0.273438 843.929688 0.453125 L 846.917969 5.765625 C 846.992188 5.882812 847.113281 5.957031 847.234375 5.957031 C 847.308594 5.957031 847.367188 5.945312 847.425781 5.898438 Z M 825.4375 19.875 C 825.617188 19.785156 825.691406 19.5625 825.585938 19.382812 L 821.613281 11.765625 C 821.523438 11.585938 821.296875 11.511719 821.117188 11.617188 C 820.9375 11.707031 820.863281 11.929688 820.96875 12.109375 L 824.945312 19.726562 C 825.003906 19.847656 825.140625 19.921875 825.273438 19.921875 C 825.320312 19.921875 825.378906 19.90625 825.4375 19.875 Z M 846.351562 14.90625 C 846.527344 14.816406 846.605469 14.59375 846.515625 14.414062 L 840.519531 2.234375 C 840.429688 2.050781 840.207031 1.976562 840.027344 2.066406 C 839.847656 2.15625 839.773438 2.382812 839.863281 2.5625 L 845.855469 14.726562 C 845.917969 14.863281 846.050781 14.9375 846.1875 14.9375 C 846.246094 14.9375 846.304688 14.921875 846.351562 14.90625 Z M 846.363281 24.664062 C 846.542969 24.574219 846.617188 24.351562 846.515625 24.171875 L 836.320312 4.625 C 836.230469 4.445312 836.007812 4.371094 835.828125 4.476562 C 835.648438 4.566406 835.574219 4.792969 835.675781 4.96875 L 845.871094 24.515625 C 845.933594 24.636719 846.066406 24.710938 846.203125 24.710938 C 846.246094 24.710938 846.304688 24.695312 846.363281 24.664062 Z M 838.816406 29.933594 C 838.980469 29.8125 839.027344 29.589844 838.90625 29.425781 L 825.558594 9.910156 C 825.4375 9.746094 825.214844 9.699219 825.050781 9.820312 C 824.886719 9.9375 824.839844 10.164062 824.960938 10.328125 L 838.308594 29.84375 C 838.382812 29.949219 838.488281 30.007812 838.609375 30.007812 C 838.679688 29.992188 838.757812 29.976562 838.816406 29.933594 Z M 846.828125 35.457031 C 847.007812 35.351562 847.066406 35.125 846.964844 34.945312 L 830.894531 7.363281 C 830.789062 7.1875 830.566406 7.125 830.386719 7.230469 C 830.207031 7.335938 830.148438 7.558594 830.25 7.738281 L 846.320312 35.320312 C 846.394531 35.441406 846.515625 35.5 846.632812 35.5 C 846.707031 35.515625 846.769531 35.5 846.828125 35.457031 Z M 741.480469 59.234375 C 741.402344 59.222656 741.3125 59.222656 741.226562 59.222656 C 740.238281 59.222656 739.460938 60.015625 739.460938 60.988281 C 739.460938 61.449219 739.640625 61.871094 739.925781 62.183594 Z M 735.039062 57.15625 C 734.183594 56.660156 733.109375 56.960938 732.617188 57.800781 C 732.585938 57.859375 732.539062 57.933594 732.511719 58.007812 C 733.019531 58.816406 733.527344 59.625 734.035156 60.449219 C 734.679688 60.492188 735.320312 60.164062 735.664062 59.566406 C 736.171875 58.726562 735.890625 57.648438 735.039062 57.15625 Z M 746.90625 47.023438 C 746.742188 47.082031 746.546875 47.113281 746.351562 47.113281 C 745.367188 47.113281 744.589844 46.320312 744.589844 45.347656 C 744.589844 44.375 745.382812 43.582031 746.351562 43.582031 C 746.996094 43.582031 747.546875 43.925781 747.863281 44.433594 Z M 737.699219 49.554688 C 736.726562 49.554688 735.933594 50.347656 735.933594 51.320312 C 735.933594 52.292969 736.726562 53.085938 737.699219 53.085938 C 738.667969 53.085938 739.460938 52.292969 739.460938 51.320312 C 739.460938 50.347656 738.667969 49.554688 737.699219 49.554688 Z M 741.226562 36.324219 C 740.253906 36.324219 739.460938 37.117188 739.460938 38.089844 C 739.460938 39.0625 740.253906 39.855469 741.226562 39.855469 C 742.199219 39.855469 742.988281 39.0625 742.988281 38.089844 C 742.988281 37.117188 742.210938 36.324219 741.226562 36.324219 Z M 731.941406 41.800781 C 730.972656 41.800781 730.179688 42.59375 730.179688 43.566406 C 730.179688 44.539062 730.972656 45.332031 731.941406 45.332031 C 732.914062 45.332031 733.707031 44.539062 733.707031 43.566406 C 733.707031 42.59375 732.929688 41.800781 731.941406 41.800781 Z M 722.628906 38.941406 C 721.972656 38.941406 721.40625 39.300781 721.105469 39.824219 C 721.660156 40.707031 722.210938 41.589844 722.765625 42.472656 C 723.691406 42.414062 724.394531 41.652344 724.394531 40.707031 C 724.410156 39.734375 723.617188 38.941406 722.628906 38.941406 Z M 621.796875 27.71875 L 632.632812 25.96875 C 632.828125 25.9375 632.976562 25.742188 632.933594 25.546875 C 632.886719 25.355469 632.707031 25.203125 632.515625 25.25 L 621.675781 27 C 621.484375 27.03125 621.332031 27.222656 621.378906 27.417969 C 621.40625 27.597656 621.558594 27.734375 621.738281 27.734375 C 621.765625 27.71875 621.78125 27.71875 621.796875 27.71875 Z M 622.453125 32.449219 L 642.125 28.511719 C 642.320312 28.46875 642.453125 28.273438 642.410156 28.078125 C 642.363281 27.882812 642.167969 27.75 641.976562 27.792969 L 622.304688 31.730469 C 622.109375 31.773438 621.976562 31.96875 622.019531 32.164062 C 622.050781 32.34375 622.214844 32.460938 622.378906 32.460938 C 622.394531 32.449219 622.425781 32.449219 622.453125 32.449219 Z M 623.292969 37.296875 L 652.4375 30.875 C 652.632812 30.832031 652.769531 30.636719 652.722656 30.441406 C 652.679688 30.246094 652.484375 30.113281 652.289062 30.15625 L 623.140625 36.578125 C 622.949219 36.625 622.8125 36.816406 622.859375 37.011719 C 622.902344 37.191406 623.050781 37.296875 623.214844 37.296875 C 623.246094 37.3125 623.261719 37.296875 623.292969 37.296875 Z M 624.277344 41.859375 L 647.878906 35.050781 C 648.074219 34.992188 648.195312 34.796875 648.132812 34.585938 C 648.074219 34.394531 647.878906 34.273438 647.671875 34.332031 L 624.070312 41.15625 C 623.875 41.21875 623.753906 41.414062 623.816406 41.621094 C 623.859375 41.785156 624.007812 41.890625 624.171875 41.890625 C 624.203125 41.875 624.25 41.875 624.277344 41.859375 Z M 625.445312 46.394531 L 643.875 39.152344 C 644.070312 39.078125 644.15625 38.867188 644.082031 38.671875 C 644.007812 38.480469 643.800781 38.390625 643.605469 38.464844 L 625.175781 45.707031 C 624.980469 45.78125 624.890625 45.992188 624.964844 46.1875 C 625.023438 46.335938 625.160156 46.425781 625.308594 46.425781 C 625.355469 46.425781 625.398438 46.410156 625.445312 46.394531 Z M 626.746094 50.839844 L 638.746094 45.0625 C 638.925781 44.972656 639 44.75 638.925781 44.570312 C 638.835938 44.390625 638.613281 44.316406 638.433594 44.390625 L 626.429688 50.167969 C 626.25 50.257812 626.175781 50.480469 626.25 50.660156 C 626.3125 50.796875 626.445312 50.871094 626.578125 50.871094 C 626.640625 50.886719 626.683594 50.871094 626.746094 50.839844 Z M 627.789062 54.085938 L 634.367188 50.839844 C 634.546875 50.75 634.621094 50.527344 634.53125 50.347656 C 634.441406 50.167969 634.21875 50.09375 634.039062 50.183594 L 627.460938 53.429688 C 627.28125 53.519531 627.207031 53.742188 627.296875 53.921875 C 627.355469 54.058594 627.492188 54.132812 627.625 54.132812 C 627.6875 54.117188 627.730469 54.117188 627.789062 54.085938 Z M 769.507812 29.378906 L 794.675781 56.0625 C 796.097656 52.203125 797.457031 47.964844 798.652344 43.371094 C 800.925781 34.601562 802.078125 26.535156 802.585938 19.546875 C 797.429688 21.433594 791.898438 23.289062 786.023438 25.023438 C 780.28125 26.730469 774.75 28.167969 769.507812 29.378906 Z M 592.632812 10.734375 C 597.28125 12.871094 601.8125 14.804688 606.175781 16.554688 C 602.574219 19.382812 598.824219 22.554688 594.996094 26.117188 C 589.136719 31.566406 584.128906 36.980469 579.882812 42.039062 C 578.34375 35.828125 576.984375 28.617188 576.175781 20.535156 C 575.503906 13.816406 575.339844 7.632812 575.460938 2.097656 C 580.765625 5 586.492188 7.902344 592.632812 10.734375 " fill-opacity="1" fill-rule="nonzero"/><g clip-path="url(#76dd4241ca)"><path fill="#f79748" d="M 706.832031 35.589844 C 710 35.605469 713.183594 35.558594 716.425781 35.46875 C 778.160156 33.628906 825.8125 11.40625 854.914062 -6.910156 C 855.257812 -7.121094 855.707031 -7.03125 855.929688 -6.6875 C 856.140625 -6.34375 856.050781 -5.894531 855.707031 -5.667969 C 826.441406 12.753906 778.535156 35.097656 716.472656 36.9375 C 713.691406 37.027344 710.925781 37.058594 708.207031 37.058594 C 706.398438 37.058594 704.589844 37.042969 702.8125 36.996094 M 702.8125 36.996094 C 643.1875 35.84375 596.417969 15.566406 566.894531 -1.929688 C 566.550781 -2.136719 566.433594 -2.585938 566.640625 -2.945312 C 566.851562 -3.289062 567.296875 -3.410156 567.65625 -3.199219 C 597.65625 14.609375 645.636719 35.289062 706.832031 35.589844 " fill-opacity="1" fill-rule="nonzero"/></g><g clip-path="url(#6573077023)"><path fill="#3ca27a" d="M 1041.824219 44.359375 C 1043.332031 40.363281 1044.5 36.625 1045.410156 33.226562 C 1039.820312 34.0625 1033.902344 34.78125 1027.667969 35.335938 C 1022.121094 35.828125 1016.785156 36.144531 1011.703125 36.324219 C 1013.796875 38.988281 1015.964844 41.980469 1018.148438 45.332031 M 1018.148438 45.332031 C 1019.269531 47.070312 1020.402344 48.894531 1021.507812 50.808594 C 1025.066406 56.929688 1027.726562 62.707031 1029.730469 67.796875 C 1032.855469 63.140625 1036.21875 57.394531 1039.28125 50.542969 C 1040.222656 48.429688 1041.074219 46.367188 1041.824219 44.359375 " fill-opacity="1" fill-rule="nonzero"/></g><path fill="#456db8" d="M 986.742188 47.621094 C 987.820312 45.902344 988.894531 44.195312 989.972656 42.472656 C 990.523438 41.589844 991.078125 40.707031 991.628906 39.824219 C 992.40625 38.582031 993.183594 37.355469 993.960938 36.113281 C 988.925781 35.917969 983.617188 35.574219 978.089844 35.050781 C 972.214844 34.484375 966.625 33.734375 961.347656 32.898438 C 962.273438 36.457031 963.425781 40.335938 964.902344 44.433594 L 965.859375 47.023438 C 966.117188 47.652344 966.371094 48.296875 966.625 48.9375 M 966.625 48.9375 C 968.117188 52.652344 969.703125 56.078125 971.289062 59.222656 C 971.808594 60.238281 972.320312 61.210938 972.839844 62.167969 C 973.605469 63.574219 974.367188 64.921875 975.097656 66.195312 C 976.292969 64.277344 977.503906 62.363281 978.699219 60.449219 C 979.210938 59.640625 979.71875 58.832031 980.226562 58.007812 C 982.394531 54.550781 984.574219 51.078125 986.742188 47.621094 " fill-opacity="1" fill-rule="nonzero"/><path fill="#f14947" d="M 896.65625 14.191406 L 866.132812 35.140625 C 866.582031 29.425781 866.761719 22.914062 866.402344 15.761719 C 866.074219 9.191406 865.324219 3.21875 864.414062 -2.0625 C 868.570312 0.378906 872.980469 2.832031 877.628906 5.242188 C 884.21875 8.652344 890.585938 11.617188 896.65625 14.191406 Z M 1074.304688 27.226562 C 1069.519531 28.480469 1064.886719 29.574219 1060.417969 30.515625 C 1064.871094 34.347656 1069.878906 39.285156 1074.8125 45.496094 C 1078.367188 49.972656 1081.238281 54.296875 1083.554688 58.234375 C 1085.363281 53.398438 1087.144531 47.800781 1088.59375 41.5 C 1090.238281 34.316406 1091.105469 27.75 1091.539062 22.0625 C 1086.15625 23.871094 1080.402344 25.625 1074.304688 27.226562 " fill-opacity="1" fill-rule="nonzero"/><path fill="#fab540" d="M 865.355469 5.898438 C 865.175781 5.792969 865.117188 5.570312 865.222656 5.390625 L 868.210938 0.078125 C 868.316406 -0.101562 868.539062 -0.164062 868.71875 -0.0585938 C 868.898438 0.046875 868.957031 0.273438 868.851562 0.453125 L 865.863281 5.765625 C 865.789062 5.882812 865.667969 5.957031 865.550781 5.957031 C 865.476562 5.957031 865.414062 5.945312 865.355469 5.898438 Z M 887.34375 19.875 C 887.164062 19.785156 887.089844 19.5625 887.195312 19.382812 L 891.167969 11.765625 C 891.257812 11.585938 891.484375 11.511719 891.664062 11.617188 C 891.84375 11.707031 891.917969 11.929688 891.8125 12.109375 L 887.835938 19.726562 C 887.777344 19.847656 887.640625 19.921875 887.507812 19.921875 C 887.464844 19.921875 887.402344 19.90625 887.34375 19.875 Z M 866.433594 14.90625 C 866.253906 14.816406 866.175781 14.59375 866.265625 14.414062 L 872.261719 2.234375 C 872.351562 2.050781 872.574219 1.976562 872.753906 2.066406 C 872.933594 2.15625 873.007812 2.382812 872.917969 2.5625 L 866.925781 14.726562 C 866.863281 14.863281 866.730469 14.9375 866.597656 14.9375 C 866.535156 14.9375 866.476562 14.921875 866.433594 14.90625 Z M 866.417969 24.664062 C 866.238281 24.574219 866.164062 24.351562 866.265625 24.171875 L 876.460938 4.625 C 876.550781 4.445312 876.773438 4.371094 876.953125 4.476562 C 877.132812 4.566406 877.207031 4.792969 877.105469 4.96875 L 866.910156 24.515625 C 866.847656 24.636719 866.714844 24.710938 866.578125 24.710938 C 866.535156 24.710938 866.476562 24.695312 866.417969 24.664062 Z M 873.964844 29.933594 C 873.800781 29.8125 873.753906 29.589844 873.875 29.425781 L 887.222656 9.910156 C 887.34375 9.746094 887.566406 9.699219 887.730469 9.820312 C 887.894531 9.9375 887.941406 10.164062 887.820312 10.328125 L 874.472656 29.84375 C 874.398438 29.949219 874.292969 30.007812 874.175781 30.007812 C 874.101562 29.992188 874.023438 29.976562 873.964844 29.933594 Z M 865.953125 35.457031 C 865.773438 35.351562 865.714844 35.125 865.816406 34.945312 L 881.886719 7.363281 C 881.992188 7.1875 882.214844 7.125 882.394531 7.230469 C 882.574219 7.335938 882.632812 7.558594 882.53125 7.738281 L 866.460938 35.320312 C 866.386719 35.441406 866.265625 35.5 866.148438 35.5 C 866.074219 35.515625 866.011719 35.5 865.953125 35.457031 Z M 971.300781 59.234375 C 971.378906 59.222656 971.46875 59.222656 971.554688 59.222656 C 972.542969 59.222656 973.320312 60.015625 973.320312 60.988281 C 973.320312 61.449219 973.140625 61.871094 972.855469 62.183594 Z M 977.742188 57.15625 C 978.597656 56.660156 979.671875 56.960938 980.164062 57.800781 C 980.195312 57.859375 980.242188 57.933594 980.269531 58.007812 C 979.761719 58.816406 979.253906 59.625 978.746094 60.449219 C 978.101562 60.492188 977.460938 60.164062 977.117188 59.566406 C 976.609375 58.726562 976.890625 57.648438 977.742188 57.15625 Z M 965.875 47.023438 C 966.042969 47.082031 966.234375 47.113281 966.429688 47.113281 C 967.414062 47.113281 968.191406 46.320312 968.191406 45.347656 C 968.191406 44.375 967.398438 43.582031 966.429688 43.582031 C 965.785156 43.582031 965.234375 43.925781 964.921875 44.433594 Z M 975.082031 49.554688 C 976.054688 49.554688 976.847656 50.347656 976.847656 51.320312 C 976.847656 52.292969 976.054688 53.085938 975.082031 53.085938 C 974.113281 53.085938 973.320312 52.292969 973.320312 51.320312 C 973.320312 50.347656 974.113281 49.554688 975.082031 49.554688 Z M 971.554688 36.324219 C 972.527344 36.324219 973.320312 37.117188 973.320312 38.089844 C 973.320312 39.0625 972.527344 39.855469 971.554688 39.855469 C 970.582031 39.855469 969.792969 39.0625 969.792969 38.089844 C 969.792969 37.117188 970.570312 36.324219 971.554688 36.324219 Z M 980.839844 41.800781 C 981.808594 41.800781 982.601562 42.59375 982.601562 43.566406 C 982.601562 44.539062 981.808594 45.332031 980.839844 45.332031 C 979.867188 45.332031 979.074219 44.539062 979.074219 43.566406 C 979.074219 42.59375 979.851562 41.800781 980.839844 41.800781 Z M 990.152344 38.941406 C 990.808594 38.941406 991.375 39.300781 991.675781 39.824219 C 991.121094 40.707031 990.570312 41.589844 990.015625 42.472656 C 989.089844 42.414062 988.386719 41.652344 988.386719 40.707031 C 988.371094 39.734375 989.164062 38.941406 990.152344 38.941406 Z M 1090.984375 27.71875 L 1080.148438 25.96875 C 1079.953125 25.9375 1079.804688 25.742188 1079.847656 25.546875 C 1079.894531 25.355469 1080.074219 25.203125 1080.265625 25.25 L 1091.105469 27 C 1091.296875 27.03125 1091.449219 27.222656 1091.402344 27.417969 C 1091.375 27.597656 1091.222656 27.734375 1091.042969 27.734375 C 1091.015625 27.71875 1091 27.71875 1090.984375 27.71875 Z M 1090.328125 32.449219 L 1070.65625 28.511719 C 1070.460938 28.46875 1070.328125 28.273438 1070.371094 28.078125 C 1070.417969 27.882812 1070.613281 27.75 1070.804688 27.792969 L 1090.476562 31.730469 C 1090.671875 31.773438 1090.804688 31.96875 1090.761719 32.164062 C 1090.730469 32.34375 1090.566406 32.460938 1090.402344 32.460938 C 1090.386719 32.449219 1090.355469 32.449219 1090.328125 32.449219 Z M 1089.488281 37.296875 L 1060.34375 30.875 C 1060.148438 30.832031 1060.015625 30.636719 1060.058594 30.441406 C 1060.105469 30.246094 1060.296875 30.113281 1060.492188 30.15625 L 1089.640625 36.578125 C 1089.832031 36.625 1089.96875 36.816406 1089.921875 37.011719 C 1089.878906 37.191406 1089.730469 37.296875 1089.566406 37.296875 C 1089.535156 37.3125 1089.519531 37.296875 1089.488281 37.296875 Z M 1088.503906 41.859375 L 1064.902344 35.050781 C 1064.707031 34.992188 1064.585938 34.796875 1064.648438 34.585938 C 1064.707031 34.394531 1064.902344 34.273438 1065.109375 34.332031 L 1088.710938 41.15625 C 1088.90625 41.21875 1089.027344 41.414062 1088.964844 41.621094 C 1088.921875 41.785156 1088.773438 41.890625 1088.609375 41.890625 C 1088.578125 41.875 1088.535156 41.875 1088.503906 41.859375 Z M 1087.335938 46.394531 L 1068.90625 39.152344 C 1068.714844 39.078125 1068.625 38.867188 1068.699219 38.671875 C 1068.773438 38.480469 1068.980469 38.390625 1069.175781 38.464844 L 1087.605469 45.707031 C 1087.800781 45.78125 1087.890625 45.992188 1087.816406 46.1875 C 1087.757812 46.335938 1087.621094 46.425781 1087.472656 46.425781 C 1087.425781 46.425781 1087.382812 46.410156 1087.335938 46.394531 Z M 1086.039062 50.839844 L 1074.035156 45.0625 C 1073.855469 44.972656 1073.78125 44.75 1073.855469 44.570312 C 1073.945312 44.390625 1074.167969 44.316406 1074.347656 44.390625 L 1086.351562 50.167969 C 1086.53125 50.257812 1086.605469 50.480469 1086.53125 50.660156 C 1086.46875 50.796875 1086.335938 50.871094 1086.203125 50.871094 C 1086.140625 50.886719 1086.097656 50.871094 1086.039062 50.839844 Z M 1084.992188 54.085938 L 1078.414062 50.839844 C 1078.234375 50.75 1078.160156 50.527344 1078.25 50.347656 C 1078.339844 50.167969 1078.5625 50.09375 1078.742188 50.183594 L 1085.320312 53.429688 C 1085.5 53.519531 1085.574219 53.742188 1085.484375 53.921875 C 1085.425781 54.058594 1085.289062 54.132812 1085.15625 54.132812 C 1085.09375 54.117188 1085.050781 54.117188 1084.992188 54.085938 Z M 943.273438 29.378906 L 918.105469 56.0625 C 916.683594 52.203125 915.324219 47.964844 914.128906 43.371094 C 911.855469 34.601562 910.703125 26.535156 910.195312 19.546875 C 915.351562 21.433594 920.882812 23.289062 926.757812 25.023438 C 932.5 26.730469 938.03125 28.167969 943.273438 29.378906 Z M 1120.148438 10.734375 C 1115.5 12.871094 1110.96875 14.804688 1106.605469 16.554688 C 1110.207031 19.382812 1113.957031 22.554688 1117.785156 26.117188 C 1123.644531 31.566406 1128.652344 36.980469 1132.898438 42.039062 C 1134.4375 35.828125 1135.796875 28.617188 1136.605469 20.535156 C 1137.277344 13.816406 1137.441406 7.632812 1137.320312 2.097656 C 1132.015625 5 1126.289062 7.902344 1120.148438 10.734375 " fill-opacity="1" fill-rule="nonzero"/><g clip-path="url(#adc0f0b6f0)"><path fill="#f79748" d="M 1005.949219 35.589844 C 1002.78125 35.605469 999.597656 35.558594 996.355469 35.46875 C 934.621094 33.628906 886.96875 11.40625 857.867188 -6.910156 C 857.523438 -7.121094 857.074219 -7.03125 856.851562 -6.6875 C 856.640625 -6.34375 856.730469 -5.894531 857.074219 -5.667969 C 886.339844 12.753906 934.246094 35.097656 996.308594 36.9375 C 999.089844 37.027344 1001.855469 37.058594 1004.574219 37.058594 C 1006.382812 37.058594 1008.191406 37.042969 1009.96875 36.996094 M 1009.96875 36.996094 C 1069.59375 35.84375 1116.363281 15.566406 1145.886719 -1.929688 C 1146.230469 -2.136719 1146.351562 -2.585938 1146.140625 -2.945312 C 1145.929688 -3.289062 1145.484375 -3.410156 1145.125 -3.199219 C 1115.125 14.609375 1067.144531 35.289062 1005.949219 35.589844 " fill-opacity="1" fill-rule="nonzero"/></g><g clip-path="url(#19a9aa71fe)"><path fill="#3ca27a" d="M 1250.667969 44.359375 C 1249.160156 40.363281 1247.992188 36.625 1247.082031 33.226562 C 1252.671875 34.0625 1258.589844 34.78125 1264.824219 35.335938 C 1270.371094 35.828125 1275.707031 36.144531 1280.789062 36.324219 C 1278.695312 38.988281 1276.527344 41.980469 1274.34375 45.332031 M 1274.34375 45.332031 C 1273.222656 47.070312 1272.089844 48.894531 1270.980469 50.808594 C 1267.425781 56.929688 1264.765625 62.707031 1262.761719 67.796875 C 1259.636719 63.140625 1256.273438 57.394531 1253.210938 50.542969 C 1252.269531 48.429688 1251.414062 46.367188 1250.667969 44.359375 " fill-opacity="1" fill-rule="nonzero"/></g><path fill="#456db8" d="M 1305.75 47.621094 C 1304.671875 45.902344 1303.597656 44.195312 1302.519531 42.472656 C 1301.96875 41.589844 1301.414062 40.707031 1300.859375 39.824219 C 1300.085938 38.582031 1299.304688 37.355469 1298.527344 36.113281 C 1303.566406 35.917969 1308.871094 35.574219 1314.402344 35.050781 C 1320.277344 34.484375 1325.867188 33.734375 1331.144531 32.898438 C 1330.21875 36.457031 1329.066406 40.335938 1327.585938 44.433594 L 1326.628906 47.023438 C 1326.375 47.652344 1326.121094 48.296875 1325.867188 48.9375 M 1325.867188 48.9375 C 1324.375 52.652344 1322.789062 56.078125 1321.203125 59.222656 C 1320.679688 60.238281 1320.171875 61.210938 1319.648438 62.167969 C 1318.886719 63.574219 1318.125 64.921875 1317.394531 66.195312 C 1316.195312 64.277344 1314.988281 62.363281 1313.789062 60.449219 C 1313.28125 59.640625 1312.773438 58.832031 1312.265625 58.007812 C 1310.097656 54.550781 1307.917969 51.078125 1305.75 47.621094 " fill-opacity="1" fill-rule="nonzero"/><path fill="#f14947" d="M 1395.835938 14.191406 L 1426.359375 35.140625 C 1425.910156 29.425781 1425.730469 22.914062 1426.089844 15.761719 C 1426.417969 9.191406 1427.167969 3.21875 1428.078125 -2.0625 C 1423.921875 0.378906 1419.511719 2.832031 1414.863281 5.242188 C 1408.269531 8.652344 1401.90625 11.617188 1395.835938 14.191406 Z M 1218.1875 27.226562 C 1222.96875 28.480469 1227.605469 29.574219 1232.074219 30.515625 C 1227.621094 34.347656 1222.613281 39.285156 1217.679688 45.496094 C 1214.121094 49.972656 1211.253906 54.296875 1208.933594 58.234375 C 1207.125 53.398438 1205.347656 47.800781 1203.898438 41.5 C 1202.253906 34.316406 1201.386719 27.75 1200.953125 22.0625 C 1206.335938 23.871094 1212.089844 25.625 1218.1875 27.226562 " fill-opacity="1" fill-rule="nonzero"/><path fill="#fab540" d="M 1427.136719 5.898438 C 1427.316406 5.792969 1427.375 5.570312 1427.269531 5.390625 L 1424.28125 0.078125 C 1424.175781 -0.101562 1423.953125 -0.164062 1423.773438 -0.0585938 C 1423.59375 0.046875 1423.535156 0.273438 1423.636719 0.453125 L 1426.628906 5.765625 C 1426.703125 5.882812 1426.824219 5.957031 1426.941406 5.957031 C 1427.015625 5.957031 1427.078125 5.945312 1427.136719 5.898438 Z M 1405.148438 19.875 C 1405.328125 19.785156 1405.402344 19.5625 1405.296875 19.382812 L 1401.320312 11.765625 C 1401.234375 11.585938 1401.007812 11.511719 1400.828125 11.617188 C 1400.648438 11.707031 1400.574219 11.929688 1400.679688 12.109375 L 1404.65625 19.726562 C 1404.714844 19.847656 1404.847656 19.921875 1404.984375 19.921875 C 1405.027344 19.921875 1405.089844 19.90625 1405.148438 19.875 Z M 1426.058594 14.90625 C 1426.238281 14.816406 1426.316406 14.59375 1426.226562 14.414062 L 1420.230469 2.234375 C 1420.140625 2.050781 1419.917969 1.976562 1419.738281 2.066406 C 1419.558594 2.15625 1419.484375 2.382812 1419.574219 2.5625 L 1425.566406 14.726562 C 1425.625 14.863281 1425.761719 14.9375 1425.894531 14.9375 C 1425.957031 14.9375 1426.015625 14.921875 1426.058594 14.90625 Z M 1426.074219 24.664062 C 1426.253906 24.574219 1426.328125 24.351562 1426.226562 24.171875 L 1416.03125 4.625 C 1415.941406 4.445312 1415.714844 4.371094 1415.539062 4.476562 C 1415.359375 4.566406 1415.285156 4.792969 1415.386719 4.96875 L 1425.582031 24.515625 C 1425.640625 24.636719 1425.777344 24.710938 1425.910156 24.710938 C 1425.957031 24.710938 1426.015625 24.695312 1426.074219 24.664062 Z M 1418.527344 29.933594 C 1418.691406 29.8125 1418.738281 29.589844 1418.617188 29.425781 L 1405.269531 9.910156 C 1405.148438 9.746094 1404.925781 9.699219 1404.757812 9.820312 C 1404.597656 9.9375 1404.550781 10.164062 1404.671875 10.328125 L 1418.019531 29.84375 C 1418.09375 29.949219 1418.199219 30.007812 1418.316406 30.007812 C 1418.390625 29.992188 1418.46875 29.976562 1418.527344 29.933594 Z M 1426.539062 35.457031 C 1426.71875 35.351562 1426.777344 35.125 1426.671875 34.945312 L 1410.605469 7.363281 C 1410.5 7.1875 1410.273438 7.125 1410.097656 7.230469 C 1409.917969 7.335938 1409.859375 7.558594 1409.960938 7.738281 L 1426.03125 35.320312 C 1426.105469 35.441406 1426.226562 35.5 1426.34375 35.5 C 1426.417969 35.515625 1426.480469 35.5 1426.539062 35.457031 Z M 1321.191406 59.234375 C 1321.113281 59.222656 1321.023438 59.222656 1320.933594 59.222656 C 1319.949219 59.222656 1319.171875 60.015625 1319.171875 60.988281 C 1319.171875 61.449219 1319.351562 61.871094 1319.636719 62.183594 Z M 1314.746094 57.15625 C 1313.894531 56.660156 1312.820312 56.960938 1312.324219 57.800781 C 1312.296875 57.859375 1312.25 57.933594 1312.222656 58.007812 C 1312.730469 58.816406 1313.238281 59.625 1313.746094 60.449219 C 1314.386719 60.492188 1315.03125 60.164062 1315.375 59.566406 C 1315.882812 58.726562 1315.597656 57.648438 1314.746094 57.15625 Z M 1326.617188 47.023438 C 1326.449219 47.082031 1326.257812 47.113281 1326.0625 47.113281 C 1325.074219 47.113281 1324.296875 46.320312 1324.296875 45.347656 C 1324.296875 44.375 1325.089844 43.582031 1326.0625 43.582031 C 1326.707031 43.582031 1327.257812 43.925781 1327.570312 44.433594 Z M 1317.40625 49.554688 C 1316.4375 49.554688 1315.644531 50.347656 1315.644531 51.320312 C 1315.644531 52.292969 1316.4375 53.085938 1317.40625 53.085938 C 1318.378906 53.085938 1319.171875 52.292969 1319.171875 51.320312 C 1319.171875 50.347656 1318.378906 49.554688 1317.40625 49.554688 Z M 1320.933594 36.324219 C 1319.964844 36.324219 1319.171875 37.117188 1319.171875 38.089844 C 1319.171875 39.0625 1319.964844 39.855469 1320.933594 39.855469 C 1321.90625 39.855469 1322.699219 39.0625 1322.699219 38.089844 C 1322.699219 37.117188 1321.921875 36.324219 1320.933594 36.324219 Z M 1311.652344 41.800781 C 1310.679688 41.800781 1309.890625 42.59375 1309.890625 43.566406 C 1309.890625 44.539062 1310.679688 45.332031 1311.652344 45.332031 C 1312.625 45.332031 1313.417969 44.539062 1313.417969 43.566406 C 1313.417969 42.59375 1312.640625 41.800781 1311.652344 41.800781 Z M 1302.339844 38.941406 C 1301.683594 38.941406 1301.117188 39.300781 1300.816406 39.824219 C 1301.371094 40.707031 1301.921875 41.589844 1302.476562 42.472656 C 1303.402344 42.414062 1304.105469 41.652344 1304.105469 40.707031 C 1304.121094 39.734375 1303.328125 38.941406 1302.339844 38.941406 Z M 1201.507812 27.71875 L 1212.34375 25.96875 C 1212.539062 25.9375 1212.6875 25.742188 1212.644531 25.546875 C 1212.597656 25.355469 1212.417969 25.203125 1212.222656 25.25 L 1201.386719 27 C 1201.191406 27.03125 1201.042969 27.222656 1201.089844 27.417969 C 1201.117188 27.597656 1201.269531 27.734375 1201.445312 27.734375 C 1201.476562 27.71875 1201.492188 27.71875 1201.507812 27.71875 Z M 1202.164062 32.449219 L 1221.835938 28.511719 C 1222.027344 28.46875 1222.164062 28.273438 1222.121094 28.078125 C 1222.074219 27.882812 1221.878906 27.75 1221.6875 27.792969 L 1202.015625 31.730469 C 1201.820312 31.773438 1201.6875 31.96875 1201.730469 32.164062 C 1201.761719 32.34375 1201.925781 32.460938 1202.089844 32.460938 C 1202.105469 32.449219 1202.132812 32.449219 1202.164062 32.449219 Z M 1203 37.296875 L 1232.148438 30.875 C 1232.34375 30.832031 1232.476562 30.636719 1232.433594 30.441406 C 1232.386719 30.246094 1232.195312 30.113281 1232 30.15625 L 1202.851562 36.578125 C 1202.65625 36.625 1202.523438 36.816406 1202.566406 37.011719 C 1202.613281 37.191406 1202.761719 37.296875 1202.925781 37.296875 C 1202.957031 37.3125 1202.972656 37.296875 1203 37.296875 Z M 1203.988281 41.859375 L 1227.589844 35.050781 C 1227.785156 34.992188 1227.902344 34.796875 1227.84375 34.585938 C 1227.785156 34.394531 1227.589844 34.273438 1227.378906 34.332031 L 1203.777344 41.15625 C 1203.585938 41.21875 1203.464844 41.414062 1203.523438 41.621094 C 1203.570312 41.785156 1203.71875 41.890625 1203.882812 41.890625 C 1203.914062 41.875 1203.957031 41.875 1203.988281 41.859375 Z M 1205.152344 46.394531 L 1223.585938 39.152344 C 1223.777344 39.078125 1223.867188 38.867188 1223.792969 38.671875 C 1223.71875 38.480469 1223.507812 38.390625 1223.316406 38.464844 L 1204.886719 45.707031 C 1204.691406 45.78125 1204.601562 45.992188 1204.675781 46.1875 C 1204.734375 46.335938 1204.871094 46.425781 1205.019531 46.425781 C 1205.0625 46.425781 1205.109375 46.410156 1205.152344 46.394531 Z M 1206.453125 50.839844 L 1218.457031 45.0625 C 1218.636719 44.972656 1218.710938 44.75 1218.636719 44.570312 C 1218.546875 44.390625 1218.324219 44.316406 1218.144531 44.390625 L 1206.140625 50.167969 C 1205.960938 50.257812 1205.886719 50.480469 1205.960938 50.660156 C 1206.019531 50.796875 1206.15625 50.871094 1206.289062 50.871094 C 1206.351562 50.886719 1206.394531 50.871094 1206.453125 50.839844 Z M 1207.5 54.085938 L 1214.078125 50.839844 C 1214.257812 50.75 1214.332031 50.527344 1214.242188 50.347656 C 1214.152344 50.167969 1213.929688 50.09375 1213.75 50.183594 L 1207.171875 53.429688 C 1206.992188 53.519531 1206.917969 53.742188 1207.007812 53.921875 C 1207.066406 54.058594 1207.203125 54.132812 1207.335938 54.132812 C 1207.394531 54.117188 1207.441406 54.117188 1207.5 54.085938 Z M 1349.21875 29.378906 L 1374.386719 56.0625 C 1375.808594 52.203125 1377.167969 47.964844 1378.363281 43.371094 C 1380.636719 34.601562 1381.785156 26.535156 1382.296875 19.546875 C 1377.136719 21.433594 1371.605469 23.289062 1365.734375 25.023438 C 1359.992188 26.730469 1354.460938 28.167969 1349.21875 29.378906 Z M 1172.34375 10.734375 C 1176.992188 12.871094 1181.523438 14.804688 1185.886719 16.554688 C 1182.285156 19.382812 1178.53125 22.554688 1174.707031 26.117188 C 1168.847656 31.566406 1163.839844 36.980469 1159.59375 42.039062 C 1158.054688 35.828125 1156.695312 28.617188 1155.886719 20.535156 C 1155.214844 13.816406 1155.050781 7.632812 1155.167969 2.097656 C 1160.476562 5 1166.199219 7.902344 1172.34375 10.734375 " fill-opacity="1" fill-rule="nonzero"/><g clip-path="url(#0c22b62865)"><path fill="#f79748" d="M 1286.542969 35.589844 C 1289.710938 35.605469 1292.894531 35.558594 1296.136719 35.46875 C 1357.871094 33.628906 1405.523438 11.40625 1434.625 -6.910156 C 1434.96875 -7.121094 1435.417969 -7.03125 1435.640625 -6.6875 C 1435.851562 -6.34375 1435.761719 -5.894531 1435.417969 -5.667969 C 1406.152344 12.753906 1358.246094 35.097656 1296.183594 36.9375 C 1293.402344 37.027344 1290.636719 37.058594 1287.917969 37.058594 C 1286.109375 37.058594 1284.300781 37.042969 1282.519531 36.996094 M 1282.519531 36.996094 C 1222.894531 35.84375 1176.125 15.566406 1146.605469 -1.929688 C 1146.261719 -2.136719 1146.140625 -2.585938 1146.351562 -2.945312 C 1146.558594 -3.289062 1147.007812 -3.410156 1147.367188 -3.199219 C 1177.367188 14.609375 1225.347656 35.289062 1286.542969 35.589844 " fill-opacity="1" fill-rule="nonzero"/></g></svg>