<svg xmlns="http://www.w3.org/2000/svg" xmlns:xlink="http://www.w3.org/1999/xlink" width="500" zoomAndPan="magnify" viewBox="0 0 375 374.999991" height="500" preserveAspectRatio="xMidYMid meet" version="1.0"><rect x="-37.5" width="450" fill="#ffffff" y="-37.499999" height="449.999989" fill-opacity="1"/><rect x="-37.5" width="450" fill="#ffffff" y="-37.499999" height="449.999989" fill-opacity="1"/><path fill="#ffffff" d="M 186.769531 347.1875 C 187.421875 326.59375 182.941406 107.316406 184.445312 93.664062 C 185.65625 82.925781 196.488281 73.726562 204.667969 66.949219 C 235.296875 41.578125 282.449219 46.523438 315.925781 69.308594 C 398.386719 125.421875 344.195312 201.078125 324.269531 213.550781 C 318.183594 217.347656 315.53125 216.464844 314.878906 219.671875 C 313.570312 226.15625 318.347656 234.632812 319.6875 241.179688 C 325.480469 269.925781 326.820312 317.886719 327.769531 347.1875 M 186.769531 347.1875 C 186.113281 326.59375 184.902344 107.316406 183.363281 93.664062 C 182.15625 82.925781 171.324219 73.726562 163.144531 66.949219 C 132.515625 41.578125 92.789062 37.550781 59.347656 60.335938 C -23.113281 116.449219 24.234375 194.070312 44.164062 206.511719 C 50.25 210.308594 52.835938 212.960938 52.964844 219.671875 C 53.097656 226.285156 49.496094 234.632812 48.15625 241.179688 C 42.363281 269.925781 38.402344 317.886719 37.457031 347.1875 " fill-opacity="1" fill-rule="nonzero"/><path fill="#f2aaa2" d="M 199.59375 116.023438 C 201.199219 115.433594 202.410156 117.921875 200.804688 118.511719 C 195.898438 120.3125 190.988281 122.113281 186.082031 123.945312 C 184.476562 124.535156 183.265625 122.046875 184.871094 121.457031 C 189.777344 119.625 194.6875 117.824219 199.59375 116.023438 Z M 271.519531 165.558594 C 266.613281 167.355469 261.703125 169.15625 256.792969 170.992188 C 255.191406 171.582031 256.433594 174.070312 258.003906 173.480469 C 262.914062 171.679688 267.824219 169.878906 272.730469 168.042969 C 274.367188 167.488281 273.125 164.96875 271.519531 165.558594 Z M 284.476562 168.242188 C 277.738281 170.371094 270.996094 172.496094 264.222656 174.625 C 262.585938 175.148438 263.832031 177.636719 265.433594 177.113281 C 272.175781 174.984375 278.914062 172.855469 285.6875 170.730469 C 287.324219 170.207031 286.113281 167.71875 284.476562 168.242188 Z M 287.683594 173.578125 C 281.632812 174.460938 275.773438 176.066406 270.308594 178.457031 C 268.769531 179.109375 269.980469 181.632812 271.519531 180.945312 C 276.789062 178.652344 282.382812 177.082031 288.242188 176.230469 C 289.976562 176 289.417969 173.347656 287.683594 173.578125 Z M 291.511719 178.457031 C 286.996094 180.191406 282.382812 181.632812 277.640625 182.808594 C 275.96875 183.203125 277.214844 185.691406 278.851562 185.296875 C 283.59375 184.152344 288.242188 182.679688 292.722656 180.945312 C 294.328125 180.320312 293.117188 177.832031 291.511719 178.457031 Z M 291.285156 184.019531 C 288.796875 185.070312 286.277344 186.117188 283.789062 187.132812 C 282.21875 187.785156 283.464844 190.273438 285 189.617188 C 287.488281 188.570312 290.007812 187.523438 292.496094 186.507812 C 294.066406 185.886719 292.855469 183.398438 291.285156 184.019531 Z M 212.554688 118.675781 C 205.8125 120.804688 199.070312 122.933594 192.296875 125.058594 C 190.664062 125.582031 191.90625 128.070312 193.507812 127.546875 C 200.25 125.421875 206.992188 123.292969 213.765625 121.164062 C 215.402344 120.640625 214.191406 118.152344 212.554688 118.675781 Z M 215.761719 124.011719 C 209.707031 124.894531 203.847656 126.5 198.386719 128.890625 C 196.847656 129.546875 198.058594 132.066406 199.59375 131.378906 C 204.863281 129.085938 210.460938 127.515625 216.316406 126.664062 C 218.019531 126.433594 217.496094 123.785156 215.761719 124.011719 Z M 219.589844 128.890625 C 215.074219 130.625 210.460938 132.066406 205.714844 133.246094 C 204.046875 133.636719 205.289062 136.125 206.925781 135.734375 C 211.671875 134.585938 216.316406 133.113281 220.800781 131.378906 C 222.402344 130.757812 221.191406 128.269531 219.589844 128.890625 Z M 219.359375 134.488281 C 216.875 135.535156 214.355469 136.582031 211.867188 137.597656 C 210.296875 138.253906 211.539062 140.742188 213.078125 140.085938 C 215.5625 139.039062 218.082031 137.992188 220.570312 136.976562 C 222.140625 136.320312 220.929688 133.832031 219.359375 134.488281 Z M 64.027344 172.660156 C 63.503906 177.867188 62.980469 183.070312 62.457031 188.277344 C 62.292969 189.980469 65.074219 189.980469 65.238281 188.277344 C 65.761719 183.070312 66.285156 177.867188 66.808594 172.660156 C 66.972656 170.957031 64.191406 170.957031 64.027344 172.660156 Z M 140.074219 129.707031 C 139.550781 134.914062 139.027344 140.121094 138.503906 145.324219 C 138.339844 147.027344 141.121094 147.027344 141.285156 145.324219 C 141.808594 140.121094 142.332031 134.914062 142.855469 129.707031 C 143.019531 128.039062 140.238281 128.039062 140.074219 129.707031 Z M 148.15625 119.234375 C 147.109375 126.238281 146.0625 133.246094 145.015625 140.21875 C 144.753906 141.921875 147.535156 141.886719 147.796875 140.21875 C 148.84375 133.210938 149.890625 126.207031 150.9375 119.234375 C 151.167969 117.5625 148.417969 117.5625 148.15625 119.234375 Z M 154.371094 118.707031 C 152.507812 124.535156 151.394531 130.496094 151.132812 136.453125 C 151.066406 138.15625 153.816406 138.15625 153.914062 136.453125 C 154.175781 130.722656 155.222656 124.996094 157.023438 119.363281 C 157.515625 117.726562 154.898438 117.039062 154.371094 118.707031 Z M 160.425781 117.398438 C 160 122.210938 159.28125 127.023438 158.234375 131.804688 C 157.875 133.472656 160.65625 133.472656 161.015625 131.804688 C 162.0625 127.023438 162.78125 122.210938 163.207031 117.398438 C 163.339844 115.695312 160.558594 115.695312 160.425781 117.398438 Z M 165.335938 120.050781 C 165.171875 122.734375 165.007812 125.453125 164.84375 128.136719 C 164.746094 129.839844 167.527344 129.839844 167.625 128.136719 C 167.789062 125.453125 167.953125 122.734375 168.117188 120.050781 C 168.214844 118.382812 165.433594 118.382812 165.335938 120.050781 Z M 72.074219 162.183594 C 71.027344 169.191406 69.980469 176.195312 68.933594 183.167969 C 68.671875 184.871094 71.453125 184.839844 71.714844 183.167969 C 72.761719 176.164062 73.808594 169.15625 74.855469 162.183594 C 75.117188 160.480469 72.335938 160.515625 72.074219 162.183594 Z M 78.292969 161.660156 C 76.429688 167.488281 75.316406 173.445312 75.054688 179.40625 C 74.988281 181.105469 77.738281 181.105469 77.835938 179.40625 C 78.097656 173.675781 79.144531 167.945312 80.945312 162.316406 C 81.433594 160.679688 78.816406 159.992188 78.292969 161.660156 Z M 84.347656 160.351562 C 83.921875 165.164062 83.203125 169.976562 82.152344 174.757812 C 81.792969 176.425781 84.574219 176.425781 84.9375 174.757812 C 85.984375 169.976562 86.703125 165.164062 87.128906 160.351562 C 87.257812 158.648438 84.476562 158.648438 84.347656 160.351562 Z M 89.253906 163.003906 C 89.089844 165.6875 88.929688 168.40625 88.765625 171.089844 C 88.667969 172.792969 91.449219 172.792969 91.546875 171.089844 C 91.710938 168.40625 91.871094 165.6875 92.035156 163.003906 C 92.132812 161.300781 89.351562 161.300781 89.253906 163.003906 Z M 89.253906 163.003906 " fill-opacity="1" fill-rule="nonzero"/><path fill="#000000" d="M 100.542969 145.324219 C 99.300781 142.640625 103.292969 140.28125 104.535156 142.96875 C 106.46875 147.15625 111.507812 156.585938 117.394531 152.230469 C 123.910156 147.484375 119.03125 138.546875 115.664062 133.570312 C 113.960938 131.082031 117.984375 128.757812 119.65625 131.214844 C 122.566406 135.503906 125.378906 140.445312 125.21875 145.816406 C 125.085938 149.84375 123.121094 153.96875 119.753906 156.226562 C 111.113281 162.054688 103.75 152.265625 100.542969 145.324219 Z M 244.523438 131.707031 C 246.78125 129.742188 243.476562 126.46875 241.25 128.433594 C 237.71875 131.542969 233.953125 135.40625 232.90625 140.183594 C 231.992188 144.375 233.691406 148.597656 237.324219 150.921875 C 245.867188 156.324219 254.699219 149.449219 260 142.96875 C 261.867188 140.675781 258.628906 137.371094 256.730469 139.695312 C 253 144.277344 247.207031 150.367188 240.664062 147.484375 C 232.644531 143.882812 240.761719 135.011719 244.523438 131.707031 Z M 125.90625 95.628906 C 124.792969 101.324219 122.761719 106.628906 119.71875 111.570312 C 118.671875 113.308594 120.40625 115.535156 122.335938 114.976562 C 127.902344 113.371094 133.464844 111.800781 139.058594 110.195312 C 141.9375 109.378906 140.695312 104.894531 137.816406 105.710938 C 134.019531 106.792969 130.191406 107.90625 126.394531 108.984375 C 128.226562 105.121094 129.570312 101.0625 130.386719 96.839844 C 130.945312 93.925781 126.460938 92.683594 125.90625 95.628906 Z M 77.539062 136.78125 C 71.78125 137.402344 66.023438 138.023438 60.261719 138.644531 C 57.316406 138.972656 57.285156 143.621094 60.261719 143.296875 C 64.289062 142.871094 68.3125 142.445312 72.335938 141.984375 C 69.816406 145.585938 67.722656 149.484375 66.152344 153.671875 C 65.105469 156.457031 69.589844 157.667969 70.636719 154.917969 C 72.597656 149.710938 75.511719 144.933594 79.175781 140.773438 C 80.386719 139.398438 79.699219 136.550781 77.539062 136.78125 Z M 295.242188 145.519531 C 289.453125 145.71875 283.824219 144.867188 278.359375 142.96875 C 276.363281 142.28125 274.824219 144.703125 275.742188 146.371094 C 278.523438 151.445312 281.304688 156.554688 284.085938 161.628906 C 285.523438 164.246094 289.515625 161.921875 288.078125 159.269531 C 286.179688 155.800781 284.316406 152.363281 282.417969 148.894531 C 286.605469 149.84375 290.925781 150.269531 295.242188 150.105469 C 298.222656 150.070312 298.253906 145.421875 295.242188 145.519531 Z M 233.890625 113.503906 C 232.023438 108.035156 230.160156 102.535156 228.292969 97.070312 C 227.34375 94.253906 222.863281 95.464844 223.808594 98.3125 C 225.121094 102.109375 226.394531 105.910156 227.703125 109.707031 C 223.808594 108.101562 219.71875 106.957031 215.5 106.332031 C 212.585938 105.910156 211.308594 110.394531 214.253906 110.820312 C 219.980469 111.636719 225.414062 113.371094 230.519531 116.15625 C 232.15625 117.039062 234.574219 115.5 233.890625 113.503906 Z M 362.128906 133.472656 C 358.757812 101.882812 335.035156 76.609375 308.136719 61.777344 C 279.175781 45.867188 241.023438 41.25 211.769531 59.058594 C 204.667969 63.382812 197.960938 69.046875 192.234375 75.070312 C 188.894531 78.570312 185.785156 82.566406 183.890625 87.050781 C 182.449219 83.679688 180.355469 80.601562 177.964844 77.722656 C 172.4375 71.140625 165.464844 65.445312 158.496094 60.46875 C 151.199219 55.230469 143.214844 51.007812 134.773438 47.996094 C 118.246094 42.101562 100.054688 41.449219 83.167969 46.390625 C 65.761719 51.53125 50.152344 62.53125 37.457031 75.296875 C 27.082031 85.742188 18.703125 98.246094 14.125 112.292969 C 6.890625 134.457031 10.097656 158.582031 20.113281 179.339844 C 23.941406 187.261719 28.75 194.824219 34.707031 201.304688 C 36.867188 203.664062 39.1875 205.855469 41.808594 207.722656 C 44.097656 209.359375 46.714844 210.636719 48.546875 212.863281 C 50.707031 215.480469 50.871094 219.117188 50.511719 222.390625 C 49.988281 227.070312 48.320312 231.589844 47.042969 236.074219 C 45.996094 239.804688 45.308594 243.636719 44.621094 247.46875 C 43.214844 255.554688 42.070312 263.703125 41.054688 271.855469 C 38.894531 289.371094 37.355469 306.953125 36.210938 324.566406 C 35.722656 332.09375 35.328125 339.65625 35.097656 347.21875 C 35 350.199219 39.648438 350.199219 39.746094 347.21875 C 40.300781 330.914062 41.414062 314.644531 42.886719 298.40625 C 44.425781 281.578125 46.257812 264.753906 49.203125 248.121094 C 49.855469 244.355469 50.578125 240.65625 51.625 236.992188 C 52.867188 232.605469 54.339844 228.28125 54.996094 223.765625 C 55.484375 220.195312 55.453125 216.367188 53.980469 212.992188 C 52.671875 209.980469 50.21875 207.855469 47.566406 206.019531 C 44.523438 203.894531 42.394531 202.550781 39.746094 199.929688 C 37.128906 197.3125 34.773438 194.429688 32.613281 191.417969 C 20.734375 174.789062 13.863281 154.03125 14.910156 133.507812 C 16.414062 103.222656 36.277344 78.769531 60.492188 62.335938 C 75.347656 52.25 92.886719 46.785156 110.882812 47.796875 C 128.6875 48.8125 145.765625 56.113281 159.675781 67.113281 C 168.605469 74.152344 180.453125 83.253906 181.171875 95.5625 C 181.433594 100.113281 181.53125 104.695312 181.632812 109.246094 C 181.695312 111.832031 181.761719 114.453125 181.792969 117.039062 C 181.828125 130.429688 181.992188 143.785156 182.15625 157.175781 C 182.417969 180.976562 182.777344 204.777344 183.101562 228.578125 C 183.167969 232.765625 183.234375 236.957031 183.300781 241.148438 C 183.496094 260.660156 183.660156 280.171875 183.855469 299.683594 C 183.988281 314.023438 184.085938 328.363281 184.347656 342.734375 C 184.378906 344.207031 184.414062 345.714844 184.445312 347.1875 C 184.414062 348.726562 185.589844 349.445312 186.769531 349.414062 C 187.945312 349.445312 189.125 348.691406 189.089844 347.1875 C 189.453125 335.726562 189.058594 324.203125 188.929688 312.714844 C 188.667969 291.433594 188.371094 270.152344 188.042969 248.875 C 188.011719 246.253906 187.980469 243.667969 187.945312 241.050781 C 187.75 219.082031 187.519531 197.148438 187.292969 175.183594 C 187.0625 156.195312 186.867188 137.207031 186.472656 118.21875 C 186.472656 118.085938 186.472656 117.957031 186.472656 117.824219 C 186.441406 111.832031 186.441406 105.808594 186.539062 99.820312 C 186.570312 98.148438 186.605469 96.480469 186.703125 94.808594 C 187.03125 89.605469 189.878906 84.921875 193.148438 81.027344 C 203.785156 68.390625 218.378906 58.667969 234.445312 54.707031 C 250.644531 50.679688 267.886719 51.921875 283.789062 56.636719 C 300.9375 61.710938 316.546875 71.042969 329.734375 83.089844 C 340.664062 93.074219 349.792969 105.253906 354.4375 119.429688 C 361.605469 141.460938 356.859375 165.132812 345.667969 184.9375 C 341.382812 192.53125 336.210938 199.734375 329.960938 205.890625 C 327.738281 208.082031 325.707031 209.882812 323.285156 211.457031 C 320.636719 213.15625 317.332031 213.878906 314.84375 215.710938 C 312.128906 217.707031 312.160156 221.472656 312.519531 224.519531 C 313.078125 228.9375 314.8125 233.09375 316.1875 237.285156 C 317.363281 240.820312 317.984375 244.453125 318.609375 248.121094 C 319.917969 256.109375 320.832031 264.164062 321.585938 272.214844 C 323.222656 289.730469 324.039062 307.3125 324.695312 324.890625 C 324.957031 332.324219 325.21875 339.753906 325.445312 347.1875 C 325.546875 350.164062 330.191406 350.164062 330.09375 347.1875 C 329.539062 330.425781 329.011719 313.664062 328.03125 296.902344 C 327.050781 279.878906 325.773438 262.789062 322.925781 245.960938 C 322.273438 242.097656 321.488281 238.367188 320.210938 234.632812 C 318.804688 230.476562 316.773438 225.992188 317.003906 221.503906 C 317.070312 220.425781 317.039062 219.769531 317.886719 219.214844 C 319.097656 218.363281 320.765625 218.003906 322.109375 217.378906 C 324.171875 216.398438 326.101562 215.1875 327.933594 213.8125 C 334.25 209 339.484375 202.714844 344.035156 196.230469 C 356.632812 178.226562 364.484375 155.667969 362.128906 133.472656 Z M 273.351562 240.625 C 265.890625 236.730469 258.105469 233.355469 250.085938 230.738281 C 243.507812 228.609375 235.949219 227.070312 229.4375 230.179688 C 223.613281 232.964844 220.472656 239.21875 220.179688 245.46875 C 219.816406 252.671875 223.484375 259.382812 228.03125 264.6875 C 233.628906 271.265625 240.890625 276.40625 248.808594 279.84375 C 251.527344 281.023438 253.882812 277.027344 251.167969 275.851562 C 243.476562 272.511719 236.472656 267.601562 231.109375 261.152344 C 226.328125 255.390625 222.863281 247.402344 226.132812 240.066406 C 229.667969 232.179688 238.535156 232.34375 245.734375 234.273438 C 254.535156 236.628906 263.042969 240.429688 271.09375 244.652344 C 273.648438 246.027344 276.003906 242 273.351562 240.625 Z M 130.8125 236.433594 C 122.597656 237.613281 114.613281 241.082031 107.742188 245.667969 C 105.289062 247.335938 107.578125 251.328125 110.097656 249.660156 C 116.675781 245.242188 124.496094 241.703125 132.449219 240.855469 C 135.65625 240.492188 139.386719 240.625 141.972656 242.816406 C 144.6875 245.109375 145.046875 248.90625 144.457031 252.179688 C 143.183594 259.417969 138.175781 265.964844 133.265625 271.203125 C 127.902344 276.929688 121.714844 281.839844 115.5625 286.6875 C 113.207031 288.519531 116.511719 291.792969 118.835938 289.960938 C 129.667969 281.449219 141.480469 272.152344 147.109375 259.152344 C 149.433594 253.785156 150.644531 246.8125 147.109375 241.671875 C 143.476562 236.367188 136.769531 235.582031 130.8125 236.433594 Z M 130.8125 236.433594 " fill-opacity="1" fill-rule="nonzero"/><path fill="#d95031" d="M 219.097656 248.089844 C 210.785156 258.628906 199.496094 267.632812 183.496094 272.316406 C 173.253906 269.140625 164.320312 262.820312 156.074219 255.945312 C 151.886719 252.476562 147.730469 248.710938 145.308594 243.832031 C 142.558594 238.332031 142.332031 231.589844 144.882812 226.023438 C 147.46875 220.457031 152.867188 216.234375 158.953125 215.351562 C 168.769531 213.910156 177.703125 220.6875 185.132812 227.234375 C 189.058594 221.179688 194.164062 215.972656 201.132812 214.105469 C 209.414062 211.878906 218.28125 217.054688 222.894531 224.253906 C 224.171875 226.253906 225.21875 228.414062 225.609375 230.738281 C 226.691406 236.992188 223.023438 243.078125 219.097656 248.089844 Z M 219.097656 248.089844 " fill-opacity="1" fill-rule="nonzero"/><path fill="#000000" d="M 224.300781 222.191406 C 219.851562 215.875 212.457031 210.964844 204.503906 211.257812 C 196.128906 211.585938 189.484375 217.316406 184.707031 223.796875 C 179.273438 219.179688 173.253906 214.730469 166.21875 213.320312 C 158.726562 211.816406 151.003906 214.238281 146.027344 220.097656 C 140.925781 226.089844 139.484375 234.535156 142.035156 241.96875 C 144.785156 249.890625 151.527344 255.355469 157.875 260.367188 C 165.335938 266.257812 173.351562 271.398438 182.417969 274.378906 C 182.679688 274.542969 183.003906 274.640625 183.363281 274.640625 C 183.855469 274.703125 184.28125 274.574219 184.609375 274.378906 C 200.085938 269.664062 213.765625 260.003906 223.023438 246.679688 C 225.511719 243.078125 227.574219 239.019531 228.03125 234.601562 C 228.457031 230.117188 226.855469 225.828125 224.300781 222.191406 Z M 223.285156 235.125 C 222.601562 239.019531 220.40625 242.523438 218.050781 245.632812 C 214.191406 250.804688 209.542969 255.519531 204.375 259.351562 C 198.058594 264.066406 190.988281 267.535156 183.464844 269.828125 C 176.851562 267.632812 170.800781 264.128906 165.140625 260.105469 C 159.445312 256.011719 153.097656 251.429688 149.039062 245.632812 C 145.046875 239.9375 144 232.210938 147.46875 225.957031 C 150.578125 220.359375 156.632812 216.988281 163.011719 217.511719 C 170.929688 218.132812 177.738281 223.832031 183.464844 228.839844 C 184.019531 229.328125 184.640625 229.492188 185.230469 229.429688 C 185.917969 229.429688 186.636719 229.101562 187.128906 228.378906 C 190.792969 222.816406 195.898438 217.378906 202.738281 216.070312 C 209.414062 214.828125 216.21875 219.019531 220.078125 224.222656 C 222.4375 227.429688 223.972656 231.128906 223.285156 235.125 Z M 223.285156 235.125 " fill-opacity="1" fill-rule="nonzero"/></svg>